<svg version="1.1" viewBox="0.0 0.0 813.0 361.8005249343832" fill="none" stroke="none" stroke-linecap="square" stroke-miterlimit="10" xmlns:xlink="http://www.w3.org/1999/xlink" xmlns="http://www.w3.org/2000/svg"><clipPath id="p.0"><path d="m0 0l813.0 0l0 361.80054l-813.0 0l0 -361.80054z" clip-rule="nonzero"/></clipPath><g clip-path="url(#p.0)"><path fill="#000000" fill-opacity="0.0" d="m0 0l813.0 0l0 361.80054l-813.0 0z" fill-rule="evenodd"/><path fill="#f4cccc" d="m52.54996 91.37024l0 0c0 -2.5889816 2.0987816 -4.6877594 4.6877594 -4.6877594l695.44336 0c1.2432861 0 2.435608 0.49388885 3.3147583 1.3730087c0.8791504 0.8791275 1.3729858 2.0714798 1.3729858 3.3147507l0 18.750465c0 2.5889816 -2.098755 4.6877594 -4.687744 4.6877594l-695.44336 0c-2.5889778 0 -4.6877594 -2.0987778 -4.6877594 -4.6877594z" fill-rule="evenodd"/><path stroke="#000000" stroke-width="2.0" stroke-linejoin="round" stroke-linecap="butt" d="m52.54996 91.37024l0 0c0 -2.5889816 2.0987816 -4.6877594 4.6877594 -4.6877594l695.44336 0c1.2432861 0 2.435608 0.49388885 3.3147583 1.3730087c0.8791504 0.8791275 1.3729858 2.0714798 1.3729858 3.3147507l0 18.750465c0 2.5889816 -2.098755 4.6877594 -4.687744 4.6877594l-695.44336 0c-2.5889778 0 -4.6877594 -2.0987778 -4.6877594 -4.6877594z" fill-rule="evenodd"/><path fill="#000000" d="m389.89294 107.665474l5.125 -13.359375l1.90625 0l5.46875 13.359375l-2.015625 0l-1.546875 -4.046875l-5.59375 0l-1.46875 4.046875l-1.875 0zm3.859375 -5.484375l4.53125 0l-1.40625 -3.703125q-0.625 -1.6875 -0.9375 -2.765625q-0.265625 1.28125 -0.71875 2.546875l-1.46875 3.921875zm10.052948 5.484375l0 -13.359375l5.046875 0q1.328125 0 2.03125 0.125q0.96875 0.171875 1.640625 0.640625q0.671875 0.453125 1.078125 1.28125q0.40625 0.828125 0.40625 1.828125q0 1.703125 -1.09375 2.890625q-1.078125 1.171875 -3.921875 1.171875l-3.421875 0l0 5.421875l-1.765625 0zm1.765625 -7.0l3.453125 0q1.71875 0 2.4375 -0.640625q0.71875 -0.640625 0.71875 -1.796875q0 -0.84375 -0.421875 -1.4375q-0.421875 -0.59375 -1.125 -0.78125q-0.4375 -0.125 -1.640625 -0.125l-3.421875 0l0 4.78125zm10.974823 7.0l0 -13.359375l1.765625 0l0 13.359375l-1.765625 0z" fill-rule="nonzero"/><path fill="#fff2cc" d="m52.54996 222.81897l48.976376 -97.95272l128.18898 0l48.976364 97.95272l-48.976364 97.9527l-128.18898 0z" fill-rule="evenodd"/><path stroke="#000000" stroke-width="2.0" stroke-linejoin="round" stroke-linecap="butt" d="m52.54996 222.81897l48.976376 -97.95272l128.18898 0l48.976364 97.95272l-48.976364 97.9527l-128.18898 0z" fill-rule="evenodd"/><path fill="#f9cb9c" d="m82.190384 195.39377l0 0c0 -14.002808 11.351517 -25.35434 25.354332 -25.35434l0 0c6.7243805 0 13.173355 2.6712646 17.928215 7.426117c4.7548523 4.7548676 7.426117 11.203827 7.426117 17.928223l0 0c0 14.002808 -11.351524 25.354324 -25.354332 25.354324l0 0c-14.002815 0 -25.354332 -11.351517 -25.354332 -25.354324z" fill-rule="evenodd"/><path stroke="#000000" stroke-width="2.0" stroke-linejoin="round" stroke-linecap="butt" d="m82.190384 195.39377l0 0c0 -14.002808 11.351517 -25.35434 25.354332 -25.35434l0 0c6.7243805 0 13.173355 2.6712646 17.928215 7.426117c4.7548523 4.7548676 7.426117 11.203827 7.426117 17.928223l0 0c0 14.002808 -11.351524 25.354324 -25.354332 25.354324l0 0c-14.002815 0 -25.354332 -11.351517 -25.354332 -25.354324z" fill-rule="evenodd"/><path fill="#000000" d="m102.76346 183.39502q1.53125 0 2.46875 0.625q0.9375 0.625 1.453125 2.109375l6.671875 17.328125q0.3125 0.796875 0.65625 1.109375q0.359375 0.296875 0.90625 0.296875l0.59375 -0.046875l0.09375 2.375q-0.5625 0.1875 -1.21875 0.1875q-1.203125 0 -1.8125 -0.28125q-0.609375 -0.296875 -1.09375 -0.96875q-0.484375 -0.671875 -0.9375 -1.921875l-3.59375 -9.265625l-4.46875 12.171875l-3.21875 0l6.15625 -16.078125l-1.5 -3.671875q-0.359375 -0.875 -0.78125 -1.234375q-0.40625 -0.359375 -1.109375 -0.359375l-0.734375 0.03125l-0.015625 -2.21875q0.65625 -0.1875 1.484375 -0.1875z" fill-rule="nonzero"/><path fill="#a4c2f4" d="m104.21138 261.8006l0 0c0 3.500702 11.351517 6.338562 25.354324 6.338562c14.002823 0 25.35434 -2.83786 25.35434 -6.338562l0 38.031494c0 3.500702 -11.351517 6.338562 -25.35434 6.338562c-14.002808 0 -25.354324 -2.83786 -25.354324 -6.338562z" fill-rule="evenodd"/><path fill="#c8daf8" d="m104.21138 261.8006l0 0c0 -3.500702 11.351517 -6.3385925 25.354324 -6.3385925c14.002823 0 25.35434 2.8378906 25.35434 6.3385925l0 0c0 3.500702 -11.351517 6.338562 -25.35434 6.338562c-14.002808 0 -25.354324 -2.83786 -25.354324 -6.338562z" fill-rule="evenodd"/><path fill="#000000" fill-opacity="0.0" d="m154.92004 261.8006l0 0c0 3.500702 -11.351517 6.338562 -25.35434 6.338562c-14.002808 0 -25.354324 -2.83786 -25.354324 -6.338562l0 0c0 -3.500702 11.351517 -6.3385925 25.354324 -6.3385925c14.002823 0 25.35434 2.8378906 25.35434 6.3385925l0 38.031494c0 3.500702 -11.351517 6.338562 -25.35434 6.338562c-14.002808 0 -25.354324 -2.83786 -25.354324 -6.338562l0 -38.031494" fill-rule="evenodd"/><path stroke="#000000" stroke-width="2.0" stroke-linejoin="round" stroke-linecap="butt" d="m154.92004 261.8006l0 0c0 3.500702 -11.351517 6.338562 -25.35434 6.338562c-14.002808 0 -25.354324 -2.83786 -25.354324 -6.338562l0 0c0 -3.500702 11.351517 -6.3385925 25.354324 -6.3385925c14.002823 0 25.35434 2.8378906 25.35434 6.3385925l0 38.031494c0 3.500702 -11.351517 6.338562 -25.35434 6.338562c-14.002808 0 -25.354324 -2.83786 -25.354324 -6.338562l0 -38.031494" fill-rule="evenodd"/><path fill="#a4c2f4" d="m170.55783 268.14163l38.031494 0l0 38.031494l-38.031494 0z" fill-rule="evenodd"/><path fill="#839bc3" d="m208.58932 268.14163l12.67717 -12.677155l0 38.031494l-12.67717 12.677155z" fill-rule="evenodd"/><path fill="#b6cef6" d="m170.55783 268.14163l12.67717 -12.677155l38.031494 0l-12.67717 12.677155z" fill-rule="evenodd"/><path fill="#000000" fill-opacity="0.0" d="m170.55783 268.14163l12.67717 -12.677155l38.031494 0l0 38.031494l-12.67717 12.677155l-38.031494 0zm0 0l38.031494 0l12.67717 -12.677155m-12.67717 12.677155l0 38.031494" fill-rule="evenodd"/><path stroke="#000000" stroke-width="2.0" stroke-linejoin="round" stroke-linecap="butt" d="m170.55783 268.14163l12.67717 -12.677155l38.031494 0l0 38.031494l-12.67717 12.677155l-38.031494 0zm0 0l38.031494 0l12.67717 -12.677155m-12.67717 12.677155l0 38.031494" fill-rule="evenodd"/><path fill="#f9cb9c" d="m140.2665 195.39377l0 0c0 -14.002808 11.351517 -25.35434 25.35434 -25.35434l0 0c6.7243805 0 13.173355 2.6712646 17.928207 7.426117c4.7548676 4.7548676 7.426117 11.203827 7.426117 17.928223l0 0c0 14.002808 -11.351517 25.354324 -25.354324 25.354324l0 0c-14.002823 0 -25.35434 -11.351517 -25.35434 -25.354324z" fill-rule="evenodd"/><path stroke="#000000" stroke-width="2.0" stroke-linejoin="round" stroke-linecap="butt" d="m140.2665 195.39377l0 0c0 -14.002808 11.351517 -25.35434 25.35434 -25.35434l0 0c6.7243805 0 13.173355 2.6712646 17.928207 7.426117c4.7548676 4.7548676 7.426117 11.203827 7.426117 17.928223l0 0c0 14.002808 -11.351517 25.354324 -25.354324 25.354324l0 0c-14.002823 0 -25.35434 -11.351517 -25.35434 -25.354324z" fill-rule="evenodd"/><path fill="#000000" d="m160.83958 183.39502q1.53125 0 2.46875 0.625q0.9375 0.625 1.453125 2.109375l6.671875 17.328125q0.3125 0.796875 0.65625 1.109375q0.359375 0.296875 0.90625 0.296875l0.59375 -0.046875l0.09375 2.375q-0.5625 0.1875 -1.21875 0.1875q-1.203125 0 -1.8125 -0.28125q-0.609375 -0.296875 -1.09375 -0.96875q-0.484375 -0.671875 -0.9375 -1.921875l-3.59375 -9.265625l-4.46875 12.171875l-3.21875 0l6.15625 -16.078125l-1.5 -3.671875q-0.359375 -0.875 -0.78125 -1.234375q-0.40625 -0.359375 -1.109375 -0.359375l-0.734375 0.03125l-0.015625 -2.21875q0.65625 -0.1875 1.484375 -0.1875z" fill-rule="nonzero"/><path fill="#f9cb9c" d="m198.3426 195.39377l0 0c0 -14.002808 11.351532 -25.35434 25.35434 -25.35434l0 0c6.7243805 0 13.173355 2.6712646 17.928223 7.426117c4.7548523 4.7548676 7.4261017 11.203827 7.4261017 17.928223l0 0c0 14.002808 -11.351517 25.354324 -25.354324 25.354324l0 0c-14.002808 0 -25.35434 -11.351517 -25.35434 -25.354324z" fill-rule="evenodd"/><path stroke="#000000" stroke-width="2.0" stroke-linejoin="round" stroke-linecap="butt" d="m198.3426 195.39377l0 0c0 -14.002808 11.351532 -25.35434 25.35434 -25.35434l0 0c6.7243805 0 13.173355 2.6712646 17.928223 7.426117c4.7548523 4.7548676 7.4261017 11.203827 7.4261017 17.928223l0 0c0 14.002808 -11.351517 25.354324 -25.354324 25.354324l0 0c-14.002808 0 -25.35434 -11.351517 -25.35434 -25.354324z" fill-rule="evenodd"/><path fill="#000000" d="m218.9157 183.39502q1.53125 0 2.46875 0.625q0.9375 0.625 1.453125 2.109375l6.671875 17.328125q0.3125 0.796875 0.65625 1.109375q0.359375 0.296875 0.90625 0.296875l0.59375 -0.046875l0.09375 2.375q-0.5625 0.1875 -1.21875 0.1875q-1.203125 0 -1.8125 -0.28125q-0.609375 -0.296875 -1.09375 -0.96875q-0.484375 -0.671875 -0.9375 -1.921875l-3.59375 -9.265625l-4.46875 12.171875l-3.21875 0l6.15625 -16.078125l-1.5 -3.671875q-0.359375 -0.875 -0.78125 -1.234375q-0.40625 -0.359375 -1.109375 -0.359375l-0.734375 0.03125l-0.015625 -2.21875q0.65625 -0.1875 1.484375 -0.1875z" fill-rule="nonzero"/><path fill="#000000" fill-opacity="0.0" d="m116.12476 136.54605l98.992134 0l0 28.125977l-98.992134 0z" fill-rule="evenodd"/><path fill="#000000" d="m129.91055 163.46605l0 -8.40625l-1.453125 0l0 -1.265625l1.453125 0l0 -1.03125q0 -0.96875 0.171875 -1.453125q0.234375 -0.640625 0.828125 -1.03125q0.59375 -0.390625 1.671875 -0.390625q0.6875 0 1.53125 0.15625l-0.25 1.4375q-0.5 -0.09375 -0.953125 -0.09375q-0.75 0 -1.0625 0.328125q-0.3125 0.3125 -0.3125 1.1875l0 0.890625l1.890625 0l0 1.265625l-1.890625 0l0 8.40625l-1.625 0zm11.120804 0l0 -1.421875q-1.125 1.640625 -3.0625 1.640625q-0.859375 0 -1.609375 -0.328125q-0.734375 -0.328125 -1.09375 -0.828125q-0.359375 -0.5 -0.5 -1.21875q-0.109375 -0.46875 -0.109375 -1.53125l0 -5.984375l1.640625 0l0 5.359375q0 1.28125 0.109375 1.734375q0.15625 0.640625 0.65625 1.015625q0.5 0.375 1.234375 0.375q0.734375 0 1.375 -0.375q0.65625 -0.390625 0.921875 -1.03125q0.265625 -0.65625 0.265625 -1.890625l0 -5.1875l1.640625 0l0 9.671875l-1.46875 0zm4.047592 0l0 -9.671875l1.46875 0l0 1.375q1.0625 -1.59375 3.078125 -1.59375q0.875 0 1.609375 0.3125q0.734375 0.3125 1.09375 0.828125q0.375 0.5 0.515625 1.203125q0.09375 0.453125 0.09375 1.59375l0 5.953125l-1.640625 0l0 -5.890625q0 -1.0 -0.203125 -1.484375q-0.1875 -0.5 -0.671875 -0.796875q-0.484375 -0.296875 -1.140625 -0.296875q-1.046875 0 -1.8125 0.671875q-0.75 0.65625 -0.75 2.515625l0 5.28125l-1.640625 0zm16.688217 -3.546875l1.609375 0.21875q-0.265625 1.65625 -1.359375 2.609375q-1.078125 0.9375 -2.671875 0.9375q-1.984375 0 -3.1875 -1.296875q-1.203125 -1.296875 -1.203125 -3.71875q0 -1.578125 0.515625 -2.75q0.515625 -1.171875 1.578125 -1.75q1.0625 -0.59375 2.3125 -0.59375q1.578125 0 2.578125 0.796875q1.0 0.796875 1.28125 2.265625l-1.59375 0.234375q-0.234375 -0.96875 -0.8125 -1.453125q-0.578125 -0.5 -1.390625 -0.5q-1.234375 0 -2.015625 0.890625q-0.78125 0.890625 -0.78125 2.8125q0 1.953125 0.75 2.84375q0.75 0.875 1.953125 0.875q0.96875 0 1.609375 -0.59375q0.65625 -0.59375 0.828125 -1.828125zm6.59375 2.078125l0.234375 1.453125q-0.6875 0.140625 -1.234375 0.140625q-0.890625 0 -1.390625 -0.28125q-0.484375 -0.28125 -0.6875 -0.734375q-0.203125 -0.46875 -0.203125 -1.9375l0 -5.578125l-1.203125 0l0 -1.265625l1.203125 0l0 -2.390625l1.625 -0.984375l0 3.375l1.65625 0l0 1.265625l-1.65625 0l0 5.671875q0 0.6875 0.078125 0.890625q0.09375 0.203125 0.28125 0.328125q0.203125 0.109375 0.578125 0.109375q0.265625 0 0.71875 -0.0625zm1.6051788 -10.0l0 -1.890625l1.640625 0l0 1.890625l-1.640625 0zm0 11.46875l0 -9.671875l1.640625 0l0 9.671875l-1.640625 0zm3.5354462 -4.84375q0 -2.6875 1.484375 -3.96875q1.25 -1.078125 3.046875 -1.078125q2.0 0 3.265625 1.3125q1.265625 1.296875 1.265625 3.609375q0 1.859375 -0.5625 2.9375q-0.5625 1.0625 -1.640625 1.65625q-1.0625 0.59375 -2.328125 0.59375q-2.03125 0 -3.28125 -1.296875q-1.25 -1.3125 -1.25 -3.765625zm1.6875 0q0 1.859375 0.796875 2.796875q0.8125 0.921875 2.046875 0.921875q1.21875 0 2.03125 -0.921875q0.8125 -0.9375 0.8125 -2.84375q0 -1.796875 -0.8125 -2.71875q-0.8125 -0.921875 -2.03125 -0.921875q-1.234375 0 -2.046875 0.921875q-0.796875 0.90625 -0.796875 2.765625zm9.297592 4.84375l0 -9.671875l1.46875 0l0 1.375q1.0625 -1.59375 3.078125 -1.59375q0.875 0 1.609375 0.3125q0.734375 0.3125 1.09375 0.828125q0.375 0.5 0.515625 1.203125q0.09375 0.453125 0.09375 1.59375l0 5.953125l-1.640625 0l0 -5.890625q0 -1.0 -0.203125 -1.484375q-0.1875 -0.5 -0.671875 -0.796875q-0.484375 -0.296875 -1.140625 -0.296875q-1.046875 0 -1.8125 0.671875q-0.75 0.65625 -0.75 2.515625l0 5.28125l-1.640625 0zm9.719467 -2.890625l1.625 -0.25q0.125 0.96875 0.75 1.5q0.625 0.515625 1.75 0.515625q1.125 0 1.671875 -0.453125q0.546875 -0.46875 0.546875 -1.09375q0 -0.546875 -0.484375 -0.875q-0.328125 -0.21875 -1.671875 -0.546875q-1.8125 -0.46875 -2.515625 -0.796875q-0.6875 -0.328125 -1.046875 -0.90625q-0.359375 -0.59375 -0.359375 -1.3125q0 -0.640625 0.296875 -1.1875q0.296875 -0.5625 0.8125 -0.921875q0.375 -0.28125 1.03125 -0.46875q0.671875 -0.203125 1.421875 -0.203125q1.140625 0 2.0 0.328125q0.859375 0.328125 1.265625 0.890625q0.421875 0.5625 0.578125 1.5l-1.609375 0.21875q-0.109375 -0.75 -0.640625 -1.171875q-0.515625 -0.421875 -1.46875 -0.421875q-1.140625 0 -1.625 0.375q-0.46875 0.375 -0.46875 0.875q0 0.3125 0.1875 0.578125q0.203125 0.265625 0.640625 0.4375q0.234375 0.09375 1.4375 0.421875q1.75 0.453125 2.4375 0.75q0.6875 0.296875 1.078125 0.859375q0.390625 0.5625 0.390625 1.40625q0 0.828125 -0.484375 1.546875q-0.46875 0.71875 -1.375 1.125q-0.90625 0.390625 -2.046875 0.390625q-1.875 0 -2.875 -0.78125q-0.984375 -0.78125 -1.25 -2.328125z" fill-rule="nonzero"/><path fill="#000000" fill-opacity="0.0" d="m113.0539 220.20993l105.13386 0l0 28.125992l-105.13386 0z" fill-rule="evenodd"/><path fill="#000000" d="m125.88328 247.12993l0 -9.671875l1.46875 0l0 1.46875q0.5625 -1.03125 1.0312576 -1.359375q0.484375 -0.328125 1.0625 -0.328125q0.828125 0 1.6875 0.53125l-0.5625 1.515625q-0.609375 -0.359375 -1.203125 -0.359375q-0.546875 0 -0.96875 0.328125q-0.42188263 0.328125 -0.6093826 0.890625q-0.28125 0.875 -0.28125 1.921875l0 5.0625l-1.625 0zm12.85331 -3.109375l1.6875 0.203125q-0.40625 1.484375 -1.484375 2.3125q-1.078125 0.8125 -2.765625 0.8125q-2.125 0 -3.375 -1.296875q-1.234375 -1.3125 -1.234375 -3.671875q0 -2.453125 1.25 -3.796875q1.265625 -1.34375 3.265625 -1.34375q1.9375 0 3.15625 1.328125q1.234375 1.3125 1.234375 3.703125q0 0.15625 0 0.4375l-7.21875 0q0.09375 1.59375 0.90625 2.453125q0.8125 0.84375 2.015625 0.84375q0.90625 0 1.546875 -0.46875q0.640625 -0.484375 1.015625 -1.515625zm-5.390625 -2.65625l5.40625 0q-0.109375 -1.21875 -0.625 -1.828125q-0.78125 -0.953125 -2.03125 -0.953125q-1.125 0 -1.90625 0.765625q-0.765625 0.75 -0.84375 2.015625zm8.485092 2.875l1.625 -0.25q0.125 0.96875 0.75 1.5q0.625 0.515625 1.75 0.515625q1.125 0 1.671875 -0.453125q0.546875 -0.46875 0.546875 -1.09375q0 -0.546875 -0.484375 -0.875q-0.328125 -0.21875 -1.671875 -0.546875q-1.8125 -0.46875 -2.515625 -0.796875q-0.6875 -0.328125 -1.046875 -0.90625q-0.359375 -0.59375 -0.359375 -1.3125q0 -0.640625 0.296875 -1.1875q0.296875 -0.5625 0.8125 -0.921875q0.375 -0.28125 1.03125 -0.46875q0.671875 -0.203125 1.421875 -0.203125q1.140625 0 2.0 0.328125q0.859375 0.328125 1.265625 0.890625q0.421875 0.5625 0.578125 1.5l-1.609375 0.21875q-0.109375 -0.75 -0.640625 -1.171875q-0.515625 -0.421875 -1.46875 -0.421875q-1.140625 0 -1.625 0.375q-0.46875 0.375 -0.46875 0.875q0 0.3125 0.1875 0.578125q0.203125 0.265625 0.640625 0.4375q0.234375 0.09375 1.4375 0.421875q1.75 0.453125 2.4375 0.75q0.6875 0.296875 1.078125 0.859375q0.390625 0.5625 0.390625 1.40625q0 0.828125 -0.484375 1.546875q-0.46875 0.71875 -1.375 1.125q-0.90625 0.390625 -2.046875 0.390625q-1.875 0 -2.875 -0.78125q-0.984375 -0.78125 -1.25 -2.328125zm9.375 -1.953125q0 -2.6875 1.484375 -3.96875q1.25 -1.078125 3.046875 -1.078125q2.0 0 3.265625 1.3125q1.265625 1.296875 1.265625 3.609375q0 1.859375 -0.5625 2.9375q-0.5625 1.0625 -1.640625 1.65625q-1.0625 0.59375 -2.328125 0.59375q-2.03125 0 -3.28125 -1.296875q-1.25 -1.3125 -1.25 -3.765625zm1.6875 0q0 1.859375 0.796875 2.796875q0.8125 0.921875 2.046875 0.921875q1.21875 0 2.03125 -0.921875q0.8125 -0.9375 0.8125 -2.84375q0 -1.796875 -0.8125 -2.71875q-0.8125 -0.921875 -2.03125 -0.921875q-1.234375 0 -2.046875 0.921875q-0.796875 0.90625 -0.796875 2.765625zm15.625717 4.84375l0 -1.421875q-1.125 1.640625 -3.0625 1.640625q-0.859375 0 -1.609375 -0.328125q-0.734375 -0.328125 -1.09375 -0.828125q-0.359375 -0.5 -0.5 -1.21875q-0.109375 -0.46875 -0.109375 -1.53125l0 -5.984375l1.640625 0l0 5.359375q0 1.28125 0.109375 1.734375q0.15625 0.640625 0.65625 1.015625q0.5 0.375 1.234375 0.375q0.734375 0 1.375 -0.375q0.65625 -0.390625 0.921875 -1.03125q0.265625 -0.65625 0.265625 -1.890625l0 -5.1875l1.640625 0l0 9.671875l-1.46875 0zm4.031967 0l0 -9.671875l1.46875 0l0 1.46875q0.5625 -1.03125 1.03125 -1.359375q0.484375 -0.328125 1.0625 -0.328125q0.828125 0 1.6874847 0.53125l-0.5625 1.515625q-0.60935974 -0.359375 -1.2031097 -0.359375q-0.546875 0 -0.96875 0.328125q-0.421875 0.328125 -0.609375 0.890625q-0.28125 0.875 -0.28125 1.921875l0 5.0625l-1.625 0zm12.540787 -3.546875l1.609375 0.21875q-0.265625 1.65625 -1.359375 2.609375q-1.078125 0.9375 -2.671875 0.9375q-1.984375 0 -3.1875 -1.296875q-1.203125 -1.296875 -1.203125 -3.71875q0 -1.578125 0.515625 -2.75q0.515625 -1.171875 1.578125 -1.75q1.0625 -0.59375 2.3125 -0.59375q1.578125 0 2.578125 0.796875q1.0 0.796875 1.28125 2.265625l-1.59375 0.234375q-0.234375 -0.96875 -0.8125 -1.453125q-0.578125 -0.5 -1.390625 -0.5q-1.234375 0 -2.015625 0.890625q-0.78125 0.890625 -0.78125 2.8125q0 1.953125 0.75 2.84375q0.75 0.875 1.953125 0.875q0.96875 0 1.609375 -0.59375q0.65625 -0.59375 0.828125 -1.828125zm9.640625 0.4375l1.6875 0.203125q-0.40625 1.484375 -1.484375 2.3125q-1.078125 0.8125 -2.765625 0.8125q-2.125 0 -3.375 -1.296875q-1.234375 -1.3125 -1.234375 -3.671875q0 -2.453125 1.25 -3.796875q1.265625 -1.34375 3.265625 -1.34375q1.9375 0 3.15625 1.328125q1.234375 1.3125 1.234375 3.703125q0 0.15625 0 0.4375l-7.21875 0q0.09375 1.59375 0.90625 2.453125q0.8125 0.84375 2.015625 0.84375q0.90625 0 1.546875 -0.46875q0.640625 -0.484375 1.015625 -1.515625zm-5.390625 -2.65625l5.40625 0q-0.109375 -1.21875 -0.625 -1.828125q-0.78125 -0.953125 -2.03125 -0.953125q-1.125 0 -1.90625 0.765625q-0.765625 0.75 -0.84375 2.015625zm8.485092 2.875l1.625 -0.25q0.125 0.96875 0.75 1.5q0.625 0.515625 1.75 0.515625q1.125 0 1.671875 -0.453125q0.546875 -0.46875 0.546875 -1.09375q0 -0.546875 -0.484375 -0.875q-0.328125 -0.21875 -1.671875 -0.546875q-1.8125 -0.46875 -2.515625 -0.796875q-0.6875 -0.328125 -1.046875 -0.90625q-0.359375 -0.59375 -0.359375 -1.3125q0 -0.640625 0.296875 -1.1875q0.296875 -0.5625 0.8125 -0.921875q0.375 -0.28125 1.03125 -0.46875q0.671875 -0.203125 1.421875 -0.203125q1.140625 0 2.0 0.328125q0.859375 0.328125 1.265625 0.890625q0.421875 0.5625 0.578125 1.5l-1.609375 0.21875q-0.109375 -0.75 -0.640625 -1.171875q-0.515625 -0.421875 -1.46875 -0.421875q-1.140625 0 -1.625 0.375q-0.46875 0.375 -0.46875 0.875q0 0.3125 0.1875 0.578125q0.203125 0.265625 0.640625 0.4375q0.234375 0.09375 1.4375 0.421875q1.75 0.453125 2.4375 0.75q0.6875 0.296875 1.078125 0.859375q0.390625 0.5625 0.390625 1.40625q0 0.828125 -0.484375 1.546875q-0.46875 0.71875 -1.375 1.125q-0.90625 0.390625 -2.046875 0.390625q-1.875 0 -2.875 -0.78125q-0.984375 -0.78125 -1.25 -2.328125z" fill-rule="nonzero"/><path fill="#fff2cc" d="m291.88855 222.81897l48.97638 -97.95272l128.18896 0l48.97638 97.95272l-48.97638 97.9527l-128.18896 0z" fill-rule="evenodd"/><path stroke="#000000" stroke-width="2.0" stroke-linejoin="round" stroke-linecap="butt" d="m291.88855 222.81897l48.97638 -97.95272l128.18896 0l48.97638 97.95272l-48.97638 97.9527l-128.18896 0z" fill-rule="evenodd"/><path fill="#a4c2f4" d="m343.54996 261.8006l0 0c0 3.500702 11.351532 6.338562 25.35434 6.338562c14.002808 0 25.35434 -2.83786 25.35434 -6.338562l0 38.031494c0 3.500702 -11.351532 6.338562 -25.35434 6.338562c-14.002808 0 -25.35434 -2.83786 -25.35434 -6.338562z" fill-rule="evenodd"/><path fill="#c8daf8" d="m343.54996 261.8006l0 0c0 -3.500702 11.351532 -6.3385925 25.35434 -6.3385925c14.002808 0 25.35434 2.8378906 25.35434 6.3385925l0 0c0 3.500702 -11.351532 6.338562 -25.35434 6.338562c-14.002808 0 -25.35434 -2.83786 -25.35434 -6.338562z" fill-rule="evenodd"/><path fill="#000000" fill-opacity="0.0" d="m394.25864 261.8006l0 0c0 3.500702 -11.351532 6.338562 -25.35434 6.338562c-14.002808 0 -25.35434 -2.83786 -25.35434 -6.338562l0 0c0 -3.500702 11.351532 -6.3385925 25.35434 -6.3385925c14.002808 0 25.35434 2.8378906 25.35434 6.3385925l0 38.031494c0 3.500702 -11.351532 6.338562 -25.35434 6.338562c-14.002808 0 -25.35434 -2.83786 -25.35434 -6.338562l0 -38.031494" fill-rule="evenodd"/><path stroke="#000000" stroke-width="2.0" stroke-linejoin="round" stroke-linecap="butt" d="m394.25864 261.8006l0 0c0 3.500702 -11.351532 6.338562 -25.35434 6.338562c-14.002808 0 -25.35434 -2.83786 -25.35434 -6.338562l0 0c0 -3.500702 11.351532 -6.3385925 25.35434 -6.3385925c14.002808 0 25.35434 2.8378906 25.35434 6.3385925l0 38.031494c0 3.500702 -11.351532 6.338562 -25.35434 6.338562c-14.002808 0 -25.35434 -2.83786 -25.35434 -6.338562l0 -38.031494" fill-rule="evenodd"/><path fill="#a4c2f4" d="m409.89642 268.14163l38.031494 0l0 38.031494l-38.031494 0z" fill-rule="evenodd"/><path fill="#839bc3" d="m447.92792 268.14163l12.677155 -12.677155l0 38.031494l-12.677155 12.677155z" fill-rule="evenodd"/><path fill="#b6cef6" d="m409.89642 268.14163l12.677155 -12.677155l38.031494 0l-12.677155 12.677155z" fill-rule="evenodd"/><path fill="#000000" fill-opacity="0.0" d="m409.89642 268.14163l12.677155 -12.677155l38.031494 0l0 38.031494l-12.677155 12.677155l-38.031494 0zm0 0l38.031494 0l12.677155 -12.677155m-12.677155 12.677155l0 38.031494" fill-rule="evenodd"/><path stroke="#000000" stroke-width="2.0" stroke-linejoin="round" stroke-linecap="butt" d="m409.89642 268.14163l12.677155 -12.677155l38.031494 0l0 38.031494l-12.677155 12.677155l-38.031494 0zm0 0l38.031494 0l12.677155 -12.677155m-12.677155 12.677155l0 38.031494" fill-rule="evenodd"/><path fill="#f9cb9c" d="m379.60507 195.39377l0 0c0 -14.002808 11.351532 -25.35434 25.35434 -25.35434l0 0c6.7243958 0 13.17337 2.6712646 17.928223 7.426117c4.7548523 4.7548676 7.426117 11.203827 7.426117 17.928223l0 0c0 14.002808 -11.351532 25.354324 -25.35434 25.354324l0 0c-14.002808 0 -25.35434 -11.351517 -25.35434 -25.354324z" fill-rule="evenodd"/><path stroke="#000000" stroke-width="2.0" stroke-linejoin="round" stroke-linecap="butt" d="m379.60507 195.39377l0 0c0 -14.002808 11.351532 -25.35434 25.35434 -25.35434l0 0c6.7243958 0 13.17337 2.6712646 17.928223 7.426117c4.7548523 4.7548676 7.426117 11.203827 7.426117 17.928223l0 0c0 14.002808 -11.351532 25.354324 -25.35434 25.354324l0 0c-14.002808 0 -25.35434 -11.351517 -25.35434 -25.354324z" fill-rule="evenodd"/><path fill="#000000" d="m400.17816 183.39502q1.53125 0 2.46875 0.625q0.9375 0.625 1.453125 2.109375l6.671875 17.328125q0.3125 0.796875 0.65625 1.109375q0.359375 0.296875 0.90625 0.296875l0.59375 -0.046875l0.09375 2.375q-0.5625 0.1875 -1.21875 0.1875q-1.203125 0 -1.8125 -0.28125q-0.609375 -0.296875 -1.09375 -0.96875q-0.484375 -0.671875 -0.9375 -1.921875l-3.59375 -9.265625l-4.46875 12.171875l-3.21875 0l6.15625 -16.078125l-1.5 -3.671875q-0.359375 -0.875 -0.78125 -1.234375q-0.40625 -0.359375 -1.109375 -0.359375l-0.734375 0.03125l-0.015625 -2.21875q0.65625 -0.1875 1.484375 -0.1875z" fill-rule="nonzero"/><path fill="#000000" fill-opacity="0.0" d="m355.46335 136.54605l98.99213 0l0 28.125977l-98.99213 0z" fill-rule="evenodd"/><path fill="#000000" d="m369.24915 163.46605l0 -8.40625l-1.453125 0l0 -1.265625l1.453125 0l0 -1.03125q0 -0.96875 0.171875 -1.453125q0.234375 -0.640625 0.828125 -1.03125q0.59375 -0.390625 1.671875 -0.390625q0.6875 0 1.53125 0.15625l-0.25 1.4375q-0.5 -0.09375 -0.953125 -0.09375q-0.75 0 -1.0625 0.328125q-0.3125 0.3125 -0.3125 1.1875l0 0.890625l1.890625 0l0 1.265625l-1.890625 0l0 8.40625l-1.625 0zm11.120789 0l0 -1.421875q-1.125 1.640625 -3.0625 1.640625q-0.859375 0 -1.609375 -0.328125q-0.734375 -0.328125 -1.09375 -0.828125q-0.359375 -0.5 -0.5 -1.21875q-0.109375 -0.46875 -0.109375 -1.53125l0 -5.984375l1.640625 0l0 5.359375q0 1.28125 0.109375 1.734375q0.15625 0.640625 0.65625 1.015625q0.5 0.375 1.234375 0.375q0.734375 0 1.375 -0.375q0.65625 -0.390625 0.921875 -1.03125q0.265625 -0.65625 0.265625 -1.890625l0 -5.1875l1.640625 0l0 9.671875l-1.46875 0zm4.0476074 0l0 -9.671875l1.46875 0l0 1.375q1.0625 -1.59375 3.078125 -1.59375q0.875 0 1.609375 0.3125q0.734375 0.3125 1.09375 0.828125q0.375 0.5 0.515625 1.203125q0.09375 0.453125 0.09375 1.59375l0 5.953125l-1.640625 0l0 -5.890625q0 -1.0 -0.203125 -1.484375q-0.1875 -0.5 -0.671875 -0.796875q-0.484375 -0.296875 -1.140625 -0.296875q-1.046875 0 -1.8125 0.671875q-0.75 0.65625 -0.75 2.515625l0 5.28125l-1.640625 0zm16.688202 -3.546875l1.609375 0.21875q-0.265625 1.65625 -1.359375 2.609375q-1.078125 0.9375 -2.671875 0.9375q-1.984375 0 -3.1875 -1.296875q-1.203125 -1.296875 -1.203125 -3.71875q0 -1.578125 0.515625 -2.75q0.515625 -1.171875 1.578125 -1.75q1.0625 -0.59375 2.3125 -0.59375q1.578125 0 2.578125 0.796875q1.0 0.796875 1.28125 2.265625l-1.59375 0.234375q-0.234375 -0.96875 -0.8125 -1.453125q-0.578125 -0.5 -1.390625 -0.5q-1.234375 0 -2.015625 0.890625q-0.78125 0.890625 -0.78125 2.8125q0 1.953125 0.75 2.84375q0.75 0.875 1.953125 0.875q0.96875 0 1.609375 -0.59375q0.65625 -0.59375 0.828125 -1.828125zm6.59375 2.078125l0.234375 1.453125q-0.6875 0.140625 -1.234375 0.140625q-0.890625 0 -1.390625 -0.28125q-0.484375 -0.28125 -0.6875 -0.734375q-0.203125 -0.46875 -0.203125 -1.9375l0 -5.578125l-1.203125 0l0 -1.265625l1.203125 0l0 -2.390625l1.625 -0.984375l0 3.375l1.65625 0l0 1.265625l-1.65625 0l0 5.671875q0 0.6875 0.078125 0.890625q0.09375 0.203125 0.28125 0.328125q0.203125 0.109375 0.578125 0.109375q0.265625 0 0.71875 -0.0625zm1.6051941 -10.0l0 -1.890625l1.640625 0l0 1.890625l-1.640625 0zm0 11.46875l0 -9.671875l1.640625 0l0 9.671875l-1.640625 0zm3.535431 -4.84375q0 -2.6875 1.484375 -3.96875q1.25 -1.078125 3.046875 -1.078125q2.0 0 3.265625 1.3125q1.265625 1.296875 1.265625 3.609375q0 1.859375 -0.5625 2.9375q-0.5625 1.0625 -1.640625 1.65625q-1.0625 0.59375 -2.328125 0.59375q-2.03125 0 -3.28125 -1.296875q-1.25 -1.3125 -1.25 -3.765625zm1.6875 0q0 1.859375 0.796875 2.796875q0.8125 0.921875 2.046875 0.921875q1.21875 0 2.03125 -0.921875q0.8125 -0.9375 0.8125 -2.84375q0 -1.796875 -0.8125 -2.71875q-0.8125 -0.921875 -2.03125 -0.921875q-1.234375 0 -2.046875 0.921875q-0.796875 0.90625 -0.796875 2.765625zm9.297607 4.84375l0 -9.671875l1.46875 0l0 1.375q1.0625 -1.59375 3.078125 -1.59375q0.875 0 1.609375 0.3125q0.734375 0.3125 1.09375 0.828125q0.375 0.5 0.515625 1.203125q0.09375 0.453125 0.09375 1.59375l0 5.953125l-1.640625 0l0 -5.890625q0 -1.0 -0.203125 -1.484375q-0.1875 -0.5 -0.671875 -0.796875q-0.484375 -0.296875 -1.140625 -0.296875q-1.046875 0 -1.8125 0.671875q-0.75 0.65625 -0.75 2.515625l0 5.28125l-1.640625 0zm9.719452 -2.890625l1.625 -0.25q0.125 0.96875 0.75 1.5q0.625 0.515625 1.75 0.515625q1.125 0 1.671875 -0.453125q0.546875 -0.46875 0.546875 -1.09375q0 -0.546875 -0.484375 -0.875q-0.328125 -0.21875 -1.671875 -0.546875q-1.8125 -0.46875 -2.515625 -0.796875q-0.6875 -0.328125 -1.046875 -0.90625q-0.359375 -0.59375 -0.359375 -1.3125q0 -0.640625 0.296875 -1.1875q0.296875 -0.5625 0.8125 -0.921875q0.375 -0.28125 1.03125 -0.46875q0.671875 -0.203125 1.421875 -0.203125q1.140625 0 2.0 0.328125q0.859375 0.328125 1.265625 0.890625q0.421875 0.5625 0.578125 1.5l-1.609375 0.21875q-0.109375 -0.75 -0.640625 -1.171875q-0.515625 -0.421875 -1.46875 -0.421875q-1.140625 0 -1.625 0.375q-0.46875 0.375 -0.46875 0.875q0 0.3125 0.1875 0.578125q0.203125 0.265625 0.640625 0.4375q0.234375 0.09375 1.4375 0.421875q1.75 0.453125 2.4375 0.75q0.6875 0.296875 1.078125 0.859375q0.390625 0.5625 0.390625 1.40625q0 0.828125 -0.484375 1.546875q-0.46875 0.71875 -1.375 1.125q-0.90625 0.390625 -2.046875 0.390625q-1.875 0 -2.875 -0.78125q-0.984375 -0.78125 -1.25 -2.328125z" fill-rule="nonzero"/><path fill="#000000" fill-opacity="0.0" d="m352.3925 220.20993l105.13385 0l0 28.125992l-105.13385 0z" fill-rule="evenodd"/><path fill="#000000" d="m365.22186 247.12993l0 -9.671875l1.46875 0l0 1.46875q0.5625 -1.03125 1.03125 -1.359375q0.484375 -0.328125 1.0625 -0.328125q0.828125 0 1.6875 0.53125l-0.5625 1.515625q-0.609375 -0.359375 -1.203125 -0.359375q-0.546875 0 -0.96875 0.328125q-0.421875 0.328125 -0.609375 0.890625q-0.28125 0.875 -0.28125 1.921875l0 5.0625l-1.625 0zm12.853302 -3.109375l1.6875 0.203125q-0.40625 1.484375 -1.484375 2.3125q-1.078125 0.8125 -2.765625 0.8125q-2.125 0 -3.375 -1.296875q-1.234375 -1.3125 -1.234375 -3.671875q0 -2.453125 1.25 -3.796875q1.265625 -1.34375 3.265625 -1.34375q1.9375 0 3.15625 1.328125q1.234375 1.3125 1.234375 3.703125q0 0.15625 0 0.4375l-7.21875 0q0.09375 1.59375 0.90625 2.453125q0.8125 0.84375 2.015625 0.84375q0.90625 0 1.546875 -0.46875q0.640625 -0.484375 1.015625 -1.515625zm-5.390625 -2.65625l5.40625 0q-0.109375 -1.21875 -0.625 -1.828125q-0.78125 -0.953125 -2.03125 -0.953125q-1.125 0 -1.90625 0.765625q-0.765625 0.75 -0.84375 2.015625zm8.485077 2.875l1.625 -0.25q0.125 0.96875 0.75 1.5q0.625 0.515625 1.75 0.515625q1.125 0 1.671875 -0.453125q0.546875 -0.46875 0.546875 -1.09375q0 -0.546875 -0.484375 -0.875q-0.328125 -0.21875 -1.671875 -0.546875q-1.8125 -0.46875 -2.515625 -0.796875q-0.6875 -0.328125 -1.046875 -0.90625q-0.359375 -0.59375 -0.359375 -1.3125q0 -0.640625 0.296875 -1.1875q0.296875 -0.5625 0.8125 -0.921875q0.375 -0.28125 1.03125 -0.46875q0.671875 -0.203125 1.421875 -0.203125q1.140625 0 2.0 0.328125q0.859375 0.328125 1.265625 0.890625q0.421875 0.5625 0.578125 1.5l-1.609375 0.21875q-0.109375 -0.75 -0.640625 -1.171875q-0.515625 -0.421875 -1.46875 -0.421875q-1.140625 0 -1.625 0.375q-0.46875 0.375 -0.46875 0.875q0 0.3125 0.1875 0.578125q0.203125 0.265625 0.640625 0.4375q0.234375 0.09375 1.4375 0.421875q1.75 0.453125 2.4375 0.75q0.6875 0.296875 1.078125 0.859375q0.390625 0.5625 0.390625 1.40625q0 0.828125 -0.484375 1.546875q-0.46875 0.71875 -1.375 1.125q-0.90625 0.390625 -2.046875 0.390625q-1.875 0 -2.875 -0.78125q-0.984375 -0.78125 -1.25 -2.328125zm9.375 -1.953125q0 -2.6875 1.484375 -3.96875q1.25 -1.078125 3.046875 -1.078125q2.0 0 3.265625 1.3125q1.265625 1.296875 1.265625 3.609375q0 1.859375 -0.5625 2.9375q-0.5625 1.0625 -1.640625 1.65625q-1.0625 0.59375 -2.328125 0.59375q-2.03125 0 -3.28125 -1.296875q-1.25 -1.3125 -1.25 -3.765625zm1.6875 0q0 1.859375 0.796875 2.796875q0.8125 0.921875 2.046875 0.921875q1.21875 0 2.03125 -0.921875q0.8125 -0.9375 0.8125 -2.84375q0 -1.796875 -0.8125 -2.71875q-0.8125 -0.921875 -2.03125 -0.921875q-1.234375 0 -2.046875 0.921875q-0.796875 0.90625 -0.796875 2.765625zm15.625732 4.84375l0 -1.421875q-1.125 1.640625 -3.0625 1.640625q-0.859375 0 -1.609375 -0.328125q-0.734375 -0.328125 -1.09375 -0.828125q-0.359375 -0.5 -0.5 -1.21875q-0.109375 -0.46875 -0.109375 -1.53125l0 -5.984375l1.640625 0l0 5.359375q0 1.28125 0.109375 1.734375q0.15625 0.640625 0.65625 1.015625q0.5 0.375 1.234375 0.375q0.734375 0 1.375 -0.375q0.65625 -0.390625 0.921875 -1.03125q0.265625 -0.65625 0.265625 -1.890625l0 -5.1875l1.640625 0l0 9.671875l-1.46875 0zm4.031952 0l0 -9.671875l1.46875 0l0 1.46875q0.5625 -1.03125 1.03125 -1.359375q0.484375 -0.328125 1.0625 -0.328125q0.828125 0 1.6875 0.53125l-0.5625 1.515625q-0.609375 -0.359375 -1.203125 -0.359375q-0.546875 0 -0.96875 0.328125q-0.421875 0.328125 -0.609375 0.890625q-0.28125 0.875 -0.28125 1.921875l0 5.0625l-1.625 0zm12.540802 -3.546875l1.609375 0.21875q-0.265625 1.65625 -1.359375 2.609375q-1.078125 0.9375 -2.671875 0.9375q-1.984375 0 -3.1875 -1.296875q-1.203125 -1.296875 -1.203125 -3.71875q0 -1.578125 0.515625 -2.75q0.515625 -1.171875 1.578125 -1.75q1.0625 -0.59375 2.3125 -0.59375q1.578125 0 2.578125 0.796875q1.0 0.796875 1.28125 2.265625l-1.59375 0.234375q-0.234375 -0.96875 -0.8125 -1.453125q-0.578125 -0.5 -1.390625 -0.5q-1.234375 0 -2.015625 0.890625q-0.78125 0.890625 -0.78125 2.8125q0 1.953125 0.75 2.84375q0.75 0.875 1.953125 0.875q0.96875 0 1.609375 -0.59375q0.65625 -0.59375 0.828125 -1.828125zm9.640625 0.4375l1.6875 0.203125q-0.40625 1.484375 -1.484375 2.3125q-1.078125 0.8125 -2.765625 0.8125q-2.125 0 -3.375 -1.296875q-1.234375 -1.3125 -1.234375 -3.671875q0 -2.453125 1.25 -3.796875q1.265625 -1.34375 3.265625 -1.34375q1.9375 0 3.15625 1.328125q1.234375 1.3125 1.234375 3.703125q0 0.15625 0 0.4375l-7.21875 0q0.09375 1.59375 0.90625 2.453125q0.8125 0.84375 2.015625 0.84375q0.90625 0 1.546875 -0.46875q0.640625 -0.484375 1.015625 -1.515625zm-5.390625 -2.65625l5.40625 0q-0.109375 -1.21875 -0.625 -1.828125q-0.78125 -0.953125 -2.03125 -0.953125q-1.125 0 -1.90625 0.765625q-0.765625 0.75 -0.84375 2.015625zm8.485107 2.875l1.625 -0.25q0.125 0.96875 0.75 1.5q0.625 0.515625 1.75 0.515625q1.125 0 1.671875 -0.453125q0.546875 -0.46875 0.546875 -1.09375q0 -0.546875 -0.484375 -0.875q-0.328125 -0.21875 -1.671875 -0.546875q-1.8125 -0.46875 -2.515625 -0.796875q-0.6875 -0.328125 -1.046875 -0.90625q-0.359375 -0.59375 -0.359375 -1.3125q0 -0.640625 0.296875 -1.1875q0.296875 -0.5625 0.8125 -0.921875q0.375 -0.28125 1.03125 -0.46875q0.671875 -0.203125 1.421875 -0.203125q1.140625 0 2.0 0.328125q0.859375 0.328125 1.265625 0.890625q0.421875 0.5625 0.578125 1.5l-1.609375 0.21875q-0.109375 -0.75 -0.640625 -1.171875q-0.515625 -0.421875 -1.46875 -0.421875q-1.140625 0 -1.625 0.375q-0.46875 0.375 -0.46875 0.875q0 0.3125 0.1875 0.578125q0.203125 0.265625 0.640625 0.4375q0.234375 0.09375 1.4375 0.421875q1.75 0.453125 2.4375 0.75q0.6875 0.296875 1.078125 0.859375q0.390625 0.5625 0.390625 1.40625q0 0.828125 -0.484375 1.546875q-0.46875 0.71875 -1.375 1.125q-0.90625 0.390625 -2.046875 0.390625q-1.875 0 -2.875 -0.78125q-0.984375 -0.78125 -1.25 -2.328125z" fill-rule="nonzero"/><path fill="#fff2cc" d="m531.2271 222.81897l48.97638 -97.95272l128.18896 0l48.97638 97.95272l-48.97638 97.9527l-128.18896 0z" fill-rule="evenodd"/><path stroke="#000000" stroke-width="2.0" stroke-linejoin="round" stroke-linecap="butt" d="m531.2271 222.81897l48.97638 -97.95272l128.18896 0l48.97638 97.95272l-48.97638 97.9527l-128.18896 0z" fill-rule="evenodd"/><path fill="#f9cb9c" d="m591.72974 195.39377l0 0c0 -14.002808 11.3515625 -25.35434 25.35437 -25.35434l0 0c6.724365 0 13.17334 2.6712646 17.928223 7.426117c4.754822 4.7548676 7.4260864 11.203827 7.4260864 17.928223l0 0c0 14.002808 -11.351501 25.354324 -25.35431 25.354324l0 0c-14.002808 0 -25.35437 -11.351517 -25.35437 -25.354324z" fill-rule="evenodd"/><path stroke="#000000" stroke-width="2.0" stroke-linejoin="round" stroke-linecap="butt" d="m591.72974 195.39377l0 0c0 -14.002808 11.3515625 -25.35434 25.35437 -25.35434l0 0c6.724365 0 13.17334 2.6712646 17.928223 7.426117c4.754822 4.7548676 7.4260864 11.203827 7.4260864 17.928223l0 0c0 14.002808 -11.351501 25.354324 -25.35431 25.354324l0 0c-14.002808 0 -25.35437 -11.351517 -25.35437 -25.354324z" fill-rule="evenodd"/><path fill="#000000" d="m612.30286 183.39502q1.53125 0 2.46875 0.625q0.9375 0.625 1.453125 2.109375l6.671875 17.328125q0.3125 0.796875 0.65625 1.109375q0.359375 0.296875 0.90625 0.296875l0.59375 -0.046875l0.09375 2.375q-0.5625 0.1875 -1.21875 0.1875q-1.203125 0 -1.8125 -0.28125q-0.609375 -0.296875 -1.09375 -0.96875q-0.484375 -0.671875 -0.9375 -1.921875l-3.59375 -9.265625l-4.46875 12.171875l-3.21875 0l6.15625 -16.078125l-1.5 -3.671875q-0.359375 -0.875 -0.78125 -1.234375q-0.40625 -0.359375 -1.109375 -0.359375l-0.734375 0.03125l-0.015625 -2.21875q0.65625 -0.1875 1.484375 -0.1875z" fill-rule="nonzero"/><path fill="#a4c2f4" d="m618.94366 261.8006l0 0c0 3.500702 11.351501 6.338562 25.35431 6.338562c14.002808 0 25.35437 -2.83786 25.35437 -6.338562l0 38.031494c0 3.500702 -11.3515625 6.338562 -25.35437 6.338562c-14.002808 0 -25.35431 -2.83786 -25.35431 -6.338562z" fill-rule="evenodd"/><path fill="#c8daf8" d="m618.94366 261.8006l0 0c0 -3.500702 11.351501 -6.3385925 25.35431 -6.3385925c14.002808 0 25.35437 2.8378906 25.35437 6.3385925l0 0c0 3.500702 -11.3515625 6.338562 -25.35437 6.338562c-14.002808 0 -25.35431 -2.83786 -25.35431 -6.338562z" fill-rule="evenodd"/><path fill="#000000" fill-opacity="0.0" d="m669.65234 261.8006l0 0c0 3.500702 -11.3515625 6.338562 -25.35437 6.338562c-14.002808 0 -25.35431 -2.83786 -25.35431 -6.338562l0 0c0 -3.500702 11.351501 -6.3385925 25.35431 -6.3385925c14.002808 0 25.35437 2.8378906 25.35437 6.3385925l0 38.031494c0 3.500702 -11.3515625 6.338562 -25.35437 6.338562c-14.002808 0 -25.35431 -2.83786 -25.35431 -6.338562l0 -38.031494" fill-rule="evenodd"/><path stroke="#000000" stroke-width="2.0" stroke-linejoin="round" stroke-linecap="butt" d="m669.65234 261.8006l0 0c0 3.500702 -11.3515625 6.338562 -25.35437 6.338562c-14.002808 0 -25.35431 -2.83786 -25.35431 -6.338562l0 0c0 -3.500702 11.351501 -6.3385925 25.35431 -6.3385925c14.002808 0 25.35437 2.8378906 25.35437 6.3385925l0 38.031494c0 3.500702 -11.3515625 6.338562 -25.35437 6.338562c-14.002808 0 -25.35431 -2.83786 -25.35431 -6.338562l0 -38.031494" fill-rule="evenodd"/><path fill="#f9cb9c" d="m649.80585 195.39377l0 0c0 -14.002808 11.3515625 -25.35434 25.35437 -25.35434l0 0c6.724365 0 13.17334 2.6712646 17.928223 7.426117c4.754822 4.7548676 7.4260864 11.203827 7.4260864 17.928223l0 0c0 14.002808 -11.351501 25.354324 -25.35431 25.354324l0 0c-14.002808 0 -25.35437 -11.351517 -25.35437 -25.354324z" fill-rule="evenodd"/><path stroke="#000000" stroke-width="2.0" stroke-linejoin="round" stroke-linecap="butt" d="m649.80585 195.39377l0 0c0 -14.002808 11.3515625 -25.35434 25.35437 -25.35434l0 0c6.724365 0 13.17334 2.6712646 17.928223 7.426117c4.754822 4.7548676 7.4260864 11.203827 7.4260864 17.928223l0 0c0 14.002808 -11.351501 25.354324 -25.35431 25.354324l0 0c-14.002808 0 -25.35437 -11.351517 -25.35437 -25.354324z" fill-rule="evenodd"/><path fill="#000000" d="m670.37897 183.39502q1.53125 0 2.46875 0.625q0.9375 0.625 1.453125 2.109375l6.671875 17.328125q0.3125 0.796875 0.65625 1.109375q0.359375 0.296875 0.90625 0.296875l0.59375 -0.046875l0.09375 2.375q-0.5625 0.1875 -1.21875 0.1875q-1.203125 0 -1.8125 -0.28125q-0.609375 -0.296875 -1.09375 -0.96875q-0.484375 -0.671875 -0.9375 -1.921875l-3.59375 -9.265625l-4.46875 12.171875l-3.21875 0l6.15625 -16.078125l-1.5 -3.671875q-0.359375 -0.875 -0.78125 -1.234375q-0.40625 -0.359375 -1.109375 -0.359375l-0.734375 0.03125l-0.015625 -2.21875q0.65625 -0.1875 1.484375 -0.1875z" fill-rule="nonzero"/><path fill="#000000" fill-opacity="0.0" d="m594.80194 136.54605l98.99213 0l0 28.125977l-98.99213 0z" fill-rule="evenodd"/><path fill="#000000" d="m608.5877 163.46605l0 -8.40625l-1.453125 0l0 -1.265625l1.453125 0l0 -1.03125q0 -0.96875 0.171875 -1.453125q0.234375 -0.640625 0.828125 -1.03125q0.59375 -0.390625 1.671875 -0.390625q0.6875 0 1.53125 0.15625l-0.25 1.4375q-0.5 -0.09375 -0.953125 -0.09375q-0.75 0 -1.0625 0.328125q-0.3125 0.3125 -0.3125 1.1875l0 0.890625l1.890625 0l0 1.265625l-1.890625 0l0 8.40625l-1.625 0zm11.120789 0l0 -1.421875q-1.125 1.640625 -3.0625 1.640625q-0.859375 0 -1.609375 -0.328125q-0.734375 -0.328125 -1.09375 -0.828125q-0.359375 -0.5 -0.5 -1.21875q-0.109375 -0.46875 -0.109375 -1.53125l0 -5.984375l1.640625 0l0 5.359375q0 1.28125 0.109375 1.734375q0.15625 0.640625 0.65625 1.015625q0.5 0.375 1.234375 0.375q0.734375 0 1.375 -0.375q0.65625 -0.390625 0.921875 -1.03125q0.265625 -0.65625 0.265625 -1.890625l0 -5.1875l1.640625 0l0 9.671875l-1.46875 0zm4.0476074 0l0 -9.671875l1.46875 0l0 1.375q1.0625 -1.59375 3.078125 -1.59375q0.875 0 1.609375 0.3125q0.734375 0.3125 1.09375 0.828125q0.375 0.5 0.515625 1.203125q0.09375 0.453125 0.09375 1.59375l0 5.953125l-1.640625 0l0 -5.890625q0 -1.0 -0.203125 -1.484375q-0.1875 -0.5 -0.671875 -0.796875q-0.484375 -0.296875 -1.140625 -0.296875q-1.046875 0 -1.8125 0.671875q-0.75 0.65625 -0.75 2.515625l0 5.28125l-1.640625 0zm16.688232 -3.546875l1.609375 0.21875q-0.265625 1.65625 -1.359375 2.609375q-1.078125 0.9375 -2.671875 0.9375q-1.984375 0 -3.1875 -1.296875q-1.203125 -1.296875 -1.203125 -3.71875q0 -1.578125 0.515625 -2.75q0.515625 -1.171875 1.578125 -1.75q1.0625 -0.59375 2.3125 -0.59375q1.578125 0 2.578125 0.796875q1.0 0.796875 1.28125 2.265625l-1.59375 0.234375q-0.234375 -0.96875 -0.8125 -1.453125q-0.578125 -0.5 -1.390625 -0.5q-1.234375 0 -2.015625 0.890625q-0.78125 0.890625 -0.78125 2.8125q0 1.953125 0.75 2.84375q0.75 0.875 1.953125 0.875q0.96875 0 1.609375 -0.59375q0.65625 -0.59375 0.828125 -1.828125zm6.59375 2.078125l0.234375 1.453125q-0.6875 0.140625 -1.234375 0.140625q-0.890625 0 -1.390625 -0.28125q-0.484375 -0.28125 -0.6875 -0.734375q-0.203125 -0.46875 -0.203125 -1.9375l0 -5.578125l-1.203125 0l0 -1.265625l1.203125 0l0 -2.390625l1.625 -0.984375l0 3.375l1.65625 0l0 1.265625l-1.65625 0l0 5.671875q0 0.6875 0.078125 0.890625q0.09375 0.203125 0.28125 0.328125q0.203125 0.109375 0.578125 0.109375q0.265625 0 0.71875 -0.0625zm1.6051636 -10.0l0 -1.890625l1.640625 0l0 1.890625l-1.640625 0zm0 11.46875l0 -9.671875l1.640625 0l0 9.671875l-1.640625 0zm3.5354614 -4.84375q0 -2.6875 1.484375 -3.96875q1.25 -1.078125 3.046875 -1.078125q2.0 0 3.265625 1.3125q1.265625 1.296875 1.265625 3.609375q0 1.859375 -0.5625 2.9375q-0.5625 1.0625 -1.640625 1.65625q-1.0625 0.59375 -2.328125 0.59375q-2.03125 0 -3.28125 -1.296875q-1.25 -1.3125 -1.25 -3.765625zm1.6875 0q0 1.859375 0.796875 2.796875q0.8125 0.921875 2.046875 0.921875q1.21875 0 2.03125 -0.921875q0.8125 -0.9375 0.8125 -2.84375q0 -1.796875 -0.8125 -2.71875q-0.8125 -0.921875 -2.03125 -0.921875q-1.234375 0 -2.046875 0.921875q-0.796875 0.90625 -0.796875 2.765625zm9.297607 4.84375l0 -9.671875l1.46875 0l0 1.375q1.0625 -1.59375 3.078125 -1.59375q0.875 0 1.609375 0.3125q0.734375 0.3125 1.09375 0.828125q0.375 0.5 0.515625 1.203125q0.09375 0.453125 0.09375 1.59375l0 5.953125l-1.640625 0l0 -5.890625q0 -1.0 -0.203125 -1.484375q-0.1875 -0.5 -0.671875 -0.796875q-0.484375 -0.296875 -1.140625 -0.296875q-1.046875 0 -1.8125 0.671875q-0.75 0.65625 -0.75 2.515625l0 5.28125l-1.640625 0zm9.719421 -2.890625l1.625 -0.25q0.125 0.96875 0.75 1.5q0.625 0.515625 1.75 0.515625q1.125 0 1.671875 -0.453125q0.546875 -0.46875 0.546875 -1.09375q0 -0.546875 -0.484375 -0.875q-0.328125 -0.21875 -1.671875 -0.546875q-1.8125 -0.46875 -2.515625 -0.796875q-0.6875 -0.328125 -1.046875 -0.90625q-0.359375 -0.59375 -0.359375 -1.3125q0 -0.640625 0.296875 -1.1875q0.296875 -0.5625 0.8125 -0.921875q0.375 -0.28125 1.03125 -0.46875q0.671875 -0.203125 1.421875 -0.203125q1.140625 0 2.0 0.328125q0.859375 0.328125 1.265625 0.890625q0.421875 0.5625 0.578125 1.5l-1.609375 0.21875q-0.109375 -0.75 -0.640625 -1.171875q-0.515625 -0.421875 -1.46875 -0.421875q-1.140625 0 -1.625 0.375q-0.46875 0.375 -0.46875 0.875q0 0.3125 0.1875 0.578125q0.203125 0.265625 0.640625 0.4375q0.234375 0.09375 1.4375 0.421875q1.75 0.453125 2.4375 0.75q0.6875 0.296875 1.078125 0.859375q0.390625 0.5625 0.390625 1.40625q0 0.828125 -0.484375 1.546875q-0.46875 0.71875 -1.375 1.125q-0.90625 0.390625 -2.046875 0.390625q-1.875 0 -2.875 -0.78125q-0.984375 -0.78125 -1.25 -2.328125z" fill-rule="nonzero"/><path fill="#000000" fill-opacity="0.0" d="m591.7311 220.20993l105.13385 0l0 28.125992l-105.13385 0z" fill-rule="evenodd"/><path fill="#000000" d="m604.5604 247.12993l0 -9.671875l1.46875 0l0 1.46875q0.5625 -1.03125 1.03125 -1.359375q0.484375 -0.328125 1.0625 -0.328125q0.828125 0 1.6875 0.53125l-0.5625 1.515625q-0.609375 -0.359375 -1.203125 -0.359375q-0.546875 0 -0.96875 0.328125q-0.421875 0.328125 -0.609375 0.890625q-0.28125 0.875 -0.28125 1.921875l0 5.0625l-1.625 0zm12.8533325 -3.109375l1.6875 0.203125q-0.40625 1.484375 -1.484375 2.3125q-1.078125 0.8125 -2.765625 0.8125q-2.125 0 -3.375 -1.296875q-1.234375 -1.3125 -1.234375 -3.671875q0 -2.453125 1.25 -3.796875q1.265625 -1.34375 3.265625 -1.34375q1.9375 0 3.15625 1.328125q1.234375 1.3125 1.234375 3.703125q0 0.15625 0 0.4375l-7.21875 0q0.09375 1.59375 0.90625 2.453125q0.8125 0.84375 2.015625 0.84375q0.90625 0 1.546875 -0.46875q0.640625 -0.484375 1.015625 -1.515625zm-5.390625 -2.65625l5.40625 0q-0.109375 -1.21875 -0.625 -1.828125q-0.78125 -0.953125 -2.03125 -0.953125q-1.125 0 -1.90625 0.765625q-0.765625 0.75 -0.84375 2.015625zm8.485107 2.875l1.625 -0.25q0.125 0.96875 0.75 1.5q0.625 0.515625 1.75 0.515625q1.125 0 1.671875 -0.453125q0.546875 -0.46875 0.546875 -1.09375q0 -0.546875 -0.484375 -0.875q-0.328125 -0.21875 -1.671875 -0.546875q-1.8125 -0.46875 -2.515625 -0.796875q-0.6875 -0.328125 -1.046875 -0.90625q-0.359375 -0.59375 -0.359375 -1.3125q0 -0.640625 0.296875 -1.1875q0.296875 -0.5625 0.8125 -0.921875q0.375 -0.28125 1.03125 -0.46875q0.671875 -0.203125 1.421875 -0.203125q1.140625 0 2.0 0.328125q0.859375 0.328125 1.265625 0.890625q0.421875 0.5625 0.578125 1.5l-1.609375 0.21875q-0.109375 -0.75 -0.640625 -1.171875q-0.515625 -0.421875 -1.46875 -0.421875q-1.140625 0 -1.625 0.375q-0.46875 0.375 -0.46875 0.875q0 0.3125 0.1875 0.578125q0.203125 0.265625 0.640625 0.4375q0.234375 0.09375 1.4375 0.421875q1.75 0.453125 2.4375 0.75q0.6875 0.296875 1.078125 0.859375q0.390625 0.5625 0.390625 1.40625q0 0.828125 -0.484375 1.546875q-0.46875 0.71875 -1.375 1.125q-0.90625 0.390625 -2.046875 0.390625q-1.875 0 -2.875 -0.78125q-0.984375 -0.78125 -1.25 -2.328125zm9.375 -1.953125q0 -2.6875 1.484375 -3.96875q1.25 -1.078125 3.046875 -1.078125q2.0 0 3.265625 1.3125q1.265625 1.296875 1.265625 3.609375q0 1.859375 -0.5625 2.9375q-0.5625 1.0625 -1.640625 1.65625q-1.0625 0.59375 -2.328125 0.59375q-2.03125 0 -3.28125 -1.296875q-1.25 -1.3125 -1.25 -3.765625zm1.6875 0q0 1.859375 0.796875 2.796875q0.8125 0.921875 2.046875 0.921875q1.21875 0 2.03125 -0.921875q0.8125 -0.9375 0.8125 -2.84375q0 -1.796875 -0.8125 -2.71875q-0.8125 -0.921875 -2.03125 -0.921875q-1.234375 0 -2.046875 0.921875q-0.796875 0.90625 -0.796875 2.765625zm15.625671 4.84375l0 -1.421875q-1.125 1.640625 -3.0625 1.640625q-0.859375 0 -1.609375 -0.328125q-0.734375 -0.328125 -1.09375 -0.828125q-0.359375 -0.5 -0.5 -1.21875q-0.109375 -0.46875 -0.109375 -1.53125l0 -5.984375l1.640625 0l0 5.359375q0 1.28125 0.109375 1.734375q0.15625 0.640625 0.65625 1.015625q0.5 0.375 1.234375 0.375q0.734375 0 1.375 -0.375q0.65625 -0.390625 0.921875 -1.03125q0.265625 -0.65625 0.265625 -1.890625l0 -5.1875l1.640625 0l0 9.671875l-1.46875 0zm4.0319824 0l0 -9.671875l1.46875 0l0 1.46875q0.5625 -1.03125 1.03125 -1.359375q0.484375 -0.328125 1.0625 -0.328125q0.828125 0 1.6875 0.53125l-0.5625 1.515625q-0.609375 -0.359375 -1.203125 -0.359375q-0.546875 0 -0.96875 0.328125q-0.421875 0.328125 -0.609375 0.890625q-0.28125 0.875 -0.28125 1.921875l0 5.0625l-1.625 0zm12.5407715 -3.546875l1.609375 0.21875q-0.265625 1.65625 -1.359375 2.609375q-1.078125 0.9375 -2.671875 0.9375q-1.984375 0 -3.1875 -1.296875q-1.203125 -1.296875 -1.203125 -3.71875q0 -1.578125 0.515625 -2.75q0.515625 -1.171875 1.578125 -1.75q1.0625 -0.59375 2.3125 -0.59375q1.578125 0 2.578125 0.796875q1.0 0.796875 1.28125 2.265625l-1.59375 0.234375q-0.234375 -0.96875 -0.8125 -1.453125q-0.578125 -0.5 -1.390625 -0.5q-1.234375 0 -2.015625 0.890625q-0.78125 0.890625 -0.78125 2.8125q0 1.953125 0.75 2.84375q0.75 0.875 1.953125 0.875q0.96875 0 1.609375 -0.59375q0.65625 -0.59375 0.828125 -1.828125zm9.640625 0.4375l1.6875 0.203125q-0.40625 1.484375 -1.484375 2.3125q-1.078125 0.8125 -2.765625 0.8125q-2.125 0 -3.375 -1.296875q-1.234375 -1.3125 -1.234375 -3.671875q0 -2.453125 1.25 -3.796875q1.265625 -1.34375 3.265625 -1.34375q1.9375 0 3.15625 1.328125q1.234375 1.3125 1.234375 3.703125q0 0.15625 0 0.4375l-7.21875 0q0.09375 1.59375 0.90625 2.453125q0.8125 0.84375 2.015625 0.84375q0.90625 0 1.546875 -0.46875q0.640625 -0.484375 1.015625 -1.515625zm-5.390625 -2.65625l5.40625 0q-0.109375 -1.21875 -0.625 -1.828125q-0.78125 -0.953125 -2.03125 -0.953125q-1.125 0 -1.90625 0.765625q-0.765625 0.75 -0.84375 2.015625zm8.485107 2.875l1.625 -0.25q0.125 0.96875 0.75 1.5q0.625 0.515625 1.75 0.515625q1.125 0 1.671875 -0.453125q0.546875 -0.46875 0.546875 -1.09375q0 -0.546875 -0.484375 -0.875q-0.328125 -0.21875 -1.671875 -0.546875q-1.8125 -0.46875 -2.515625 -0.796875q-0.6875 -0.328125 -1.046875 -0.90625q-0.359375 -0.59375 -0.359375 -1.3125q0 -0.640625 0.296875 -1.1875q0.296875 -0.5625 0.8125 -0.921875q0.375 -0.28125 1.03125 -0.46875q0.671875 -0.203125 1.421875 -0.203125q1.140625 0 2.0 0.328125q0.859375 0.328125 1.265625 0.890625q0.421875 0.5625 0.578125 1.5l-1.609375 0.21875q-0.109375 -0.75 -0.640625 -1.171875q-0.515625 -0.421875 -1.46875 -0.421875q-1.140625 0 -1.625 0.375q-0.46875 0.375 -0.46875 0.875q0 0.3125 0.1875 0.578125q0.203125 0.265625 0.640625 0.4375q0.234375 0.09375 1.4375 0.421875q1.75 0.453125 2.4375 0.75q0.6875 0.296875 1.078125 0.859375q0.390625 0.5625 0.390625 1.40625q0 0.828125 -0.484375 1.546875q-0.46875 0.71875 -1.375 1.125q-0.90625 0.390625 -2.046875 0.390625q-1.875 0 -2.875 -0.78125q-0.984375 -0.78125 -1.25 -2.328125z" fill-rule="nonzero"/><path fill="#000000" fill-opacity="0.0" d="m-16.111456 114.45676l0 216.7244l35.46457 0l0 -216.7244z" fill-rule="evenodd"/><path fill="#000000" d="m23.608545 318.49866l-16.59375 0l0 -2.515625l2.328125 0q-1.21875 -0.78125 -1.953125 -2.078125q-0.75 -1.296875 -0.75 -2.953125q0 -1.84375 0.765625 -3.015625q0.765625 -1.1875 2.140625 -1.671875q-2.90625 -1.96875 -2.90625 -5.125q0 -2.46875 1.375 -3.796875q1.359375 -1.328125 4.203125 -1.328125l11.390625 0l0 2.796875l-10.453125 0q-1.6875 0 -2.421875 0.28125q-0.75 0.265625 -1.203125 0.984375q-0.453125 0.71875 -0.453125 1.6875q0 1.75 1.171875 2.90625q1.15625 1.15625 3.71875 1.15625l9.640625 0l0 2.8125l-10.78125 0q-1.875 0 -2.8125 0.6875q-0.9375 0.6875 -0.9375 2.25q0 1.1875 0.625 2.203125q0.625 1.0 1.828125 1.453125q1.203125 0.453125 3.46875 0.453125l8.609375 0l0 2.8125zm-19.671875 -26.671875l-3.234375 0l0 -2.8125l3.234375 0l0 2.8125zm19.671875 0l-16.59375 0l0 -2.8125l16.59375 0l0 2.8125zm-6.078125 -17.921875l0.359375 -2.765625q2.859375 0.453125 4.484375 2.328125q1.609375 1.859375 1.609375 4.578125q0 3.40625 -2.21875 5.484375q-2.234375 2.0625 -6.390625 2.0625q-2.6875 0 -4.703125 -0.890625q-2.015625 -0.890625 -3.015625 -2.703125q-1.015625 -1.828125 -1.015625 -3.96875q0 -2.703125 1.375 -4.421875q1.359375 -1.71875 3.875 -2.203125l0.421875 2.734375q-1.671875 0.390625 -2.515625 1.390625q-0.84375 0.984375 -0.84375 2.390625q0 2.125 1.53125 3.453125q1.515625 1.328125 4.8125 1.328125q3.34375 0 4.859375 -1.28125q1.515625 -1.28125 1.515625 -3.34375q0 -1.65625 -1.015625 -2.765625q-1.015625 -1.109375 -3.125 -1.40625zm6.078125 -5.140625l-16.59375 0l0 -2.53125l2.515625 0q-1.765625 -0.96875 -2.328125 -1.78125q-0.5625 -0.828125 -0.5625 -1.8125q0 -1.421875 0.90625 -2.890625l2.609375 0.96875q-0.609375 1.03125 -0.609375 2.0625q0 0.921875 0.5625 1.65625q0.546875 0.734375 1.53125 1.046875q1.5 0.46875 3.28125 0.46875l8.6875 0l0 2.8125zm-8.296875 -9.640625q-4.609375 0 -6.828125 -2.5625q-1.84375 -2.1406403 -1.84375 -5.2187653q0 -3.421875 2.25 -5.59375q2.234375 -2.171875 6.1875 -2.171875q3.203125 0 5.046875 0.96875q1.828125 0.953125 2.84375 2.796875q1.015625 1.828125 1.015625 4.0q0 3.484375 -2.234375 5.6406403q-2.234375 2.140625 -6.4375 2.140625zm0 -2.890625q3.1875 0 4.78125 -1.3906403q1.578125 -1.390625 1.578125 -3.5q0 -2.09375 -1.59375 -3.484375q-1.59375 -1.390625 -4.859375 -1.390625q-3.078125 0 -4.65625 1.40625q-1.59375 1.390625 -1.59375 3.46875q0 2.109375 1.578125 3.5q1.578125 1.3906403 4.765625 1.3906403zm3.34375 -14.82814l-0.4375 -2.78125q1.671875 -0.234375 2.5625 -1.296875q0.890625 -1.078125 0.890625 -3.0q0 -1.9375 -0.78125 -2.875q-0.796875 -0.9375 -1.859375 -0.9375q-0.953125 0 -1.5 0.828125q-0.375 0.578125 -0.953125 2.875q-0.78125 3.09375 -1.34375 4.296875q-0.578125 1.1875 -1.578125 1.8125q-1.015625 0.609375 -2.234375 0.609375q-1.109375 0 -2.046875 -0.5q-0.953125 -0.515625 -1.578125 -1.390625q-0.484375 -0.65625 -0.8125 -1.78125q-0.34375 -1.140625 -0.34375 -2.4375q0 -1.953125 0.5625 -3.421875q0.5625 -1.484375 1.53125 -2.1875q0.953125 -0.703125 2.5625 -0.96875l0.375 2.75q-1.28125 0.1875 -2.0 1.09375q-0.71875 0.890625 -0.71875 2.53125q0 1.9375 0.640625 2.765625q0.640625 0.828125 1.5 0.828125q0.546875 0 0.984375 -0.34375q0.453125 -0.34375 0.75 -1.078125q0.15625 -0.421875 0.71875 -2.484375q0.796875 -2.984375 1.3125 -4.15625q0.5 -1.1875 1.46875 -1.859375q0.96875 -0.671875 2.40625 -0.671875q1.40625 0 2.65625 0.828125q1.234375 0.8125 1.921875 2.359375q0.671875 1.546875 0.671875 3.5q0 3.234375 -1.34375 4.9375q-1.34375 1.6875 -3.984375 2.15625zm-0.390625 -28.484375l0.359375 -2.90625q2.546875 0.6875 3.953125 2.546875q1.40625 1.859375 1.40625 4.75q0 3.640625 -2.234375 5.78125q-2.25 2.125 -6.296875 2.125q-4.1875 0 -6.5 -2.15625q-2.3125 -2.15625 -2.3125 -5.59375q0 -3.328125 2.265625 -5.4375q2.265625 -2.109375 6.375 -2.109375q0.25 0 0.75 0.015625l0 12.375q2.734375 -0.15625 4.1875 -1.546875q1.453125 -1.390625 1.453125 -3.46875q0 -1.546875 -0.8125 -2.640625q-0.8125 -1.09375 -2.59375 -1.734375zm-4.546875 9.234375l0 -9.265625q-2.09375 0.1875 -3.140625 1.0625q-1.625 1.34375 -1.625 3.484375q0 1.9375 1.296875 3.265625q1.296875 1.3125 3.46875 1.453125zm9.890625 -15.640625l-16.59375 0l0 -2.53125l2.515625 0q-1.765625 -0.96875 -2.328125 -1.78125q-0.5625 -0.828125 -0.5625 -1.8125q0 -1.421875 0.90625 -2.890625l2.609375 0.96875q-0.609375 1.03125 -0.609375 2.0625q0 0.921875 0.5625 1.65625q0.546875 0.734375 1.53125 1.046875q1.5 0.46875 3.28125 0.46875l8.6875 0l0 2.8125zm0 -15.296875l-16.59375 6.3125l0 -2.96875l9.9375 -3.5625q1.609375 -0.578125 3.34375 -1.0625q-1.3125 -0.375 -3.15625 -1.046875l-10.125 -3.6875l0 -2.890625l16.59375 6.28125l0 2.625zm-19.671875 -11.40625l-3.234375 0l0 -2.8125l3.234375 0l0 2.8125zm19.671875 0l-16.59375 0l0 -2.8125l16.59375 0l0 2.8125zm-6.078125 -17.921875l0.359375 -2.765625q2.859375 0.453125 4.484375 2.328125q1.609375 1.859375 1.609375 4.578125q0 3.40625 -2.21875 5.484375q-2.234375 2.0625 -6.390625 2.0625q-2.6875 0 -4.703125 -0.890625q-2.015625 -0.890625 -3.015625 -2.703125q-1.015625 -1.828125 -1.015625 -3.96875q0 -2.703125 1.375 -4.421875q1.359375 -1.71875 3.875 -2.203125l0.421875 2.734375q-1.671875 0.390625 -2.515625 1.390625q-0.84375 0.984375 -0.84375 2.390625q0 2.125 1.53125 3.453125q1.515625 1.328125 4.8125 1.328125q3.34375 0 4.859375 -1.28125q1.515625 -1.28125 1.515625 -3.34375q0 -1.65625 -1.015625 -2.765625q-1.015625 -1.109375 -3.125 -1.40625zm0.734375 -16.53125l0.359375 -2.90625q2.546875 0.6875 3.953125 2.546875q1.40625 1.859375 1.40625 4.75q0 3.640625 -2.234375 5.78125q-2.25 2.125 -6.296875 2.125q-4.1875 0 -6.5 -2.15625q-2.3125 -2.15625 -2.3125 -5.59375q0 -3.328125 2.265625 -5.4375q2.265625 -2.109375 6.375 -2.109375q0.25 0 0.75 0.015625l0 12.375q2.734375 -0.15625 4.1875 -1.546875q1.453125 -1.390625 1.453125 -3.46875q0 -1.546875 -0.8125 -2.640625q-0.8125 -1.09375 -2.59375 -1.734375zm-4.546875 9.234375l0 -9.265625q-2.09375 0.1875 -3.140625 1.0625q-1.625 1.34375 -1.625 3.484375q0 1.9375 1.296875 3.265625q1.296875 1.3125 3.46875 1.453125zm4.9375 -14.546875l-0.4375 -2.78125q1.671875 -0.234375 2.5625 -1.296875q0.890625 -1.078125 0.890625 -3.0q0 -1.9375 -0.78125 -2.875q-0.796875 -0.9375 -1.859375 -0.9375q-0.953125 0 -1.5 0.828125q-0.375 0.578125 -0.953125 2.875q-0.78125 3.09375 -1.34375 4.296875q-0.578125 1.1875 -1.578125 1.8125q-1.015625 0.609375 -2.234375 0.609375q-1.109375 0 -2.046875 -0.5q-0.953125 -0.515625 -1.578125 -1.390625q-0.484375 -0.65625 -0.8125 -1.78125q-0.34375 -1.140625 -0.34375 -2.4375q0 -1.953125 0.5625 -3.421875q0.5625 -1.484375 1.53125 -2.1875q0.953125 -0.703125 2.5625 -0.96875l0.375 2.75q-1.28125 0.1875 -2.0 1.09375q-0.71875 0.890625 -0.71875 2.53125q0 1.9375 0.640625 2.765625q0.640625 0.828125 1.5 0.828125q0.546875 0 0.984375 -0.34375q0.453125 -0.34375 0.75 -1.078125q0.15625 -0.421875 0.71875 -2.484375q0.796875 -2.984375 1.3125 -4.15625q0.5 -1.1875 1.46875 -1.859375q0.96875 -0.671875 2.40625 -0.671875q1.40625 0 2.65625 0.828125q1.234375 0.8125 1.921875 2.359375q0.671875 1.546875 0.671875 3.5q0 3.234375 -1.34375 4.9375q-1.34375 1.6875 -3.984375 2.15625z" fill-rule="nonzero"/><path fill="#cfe2f3" d="m55.955475 357.69562l0 0c1.8547173 0 3.358265 -6.0141907 3.358265 -13.433075c0 -7.4188843 -1.5035477 -13.433075 -3.358265 -13.433075l698.0078 0c1.8547363 0 3.3582764 6.0141907 3.3582764 13.433075c0 7.4188843 -1.50354 13.433075 -3.3582764 13.433075z" fill-rule="evenodd"/><path fill="#e2edf7" d="m55.955475 357.69562l0 0c-1.8547211 0 -3.3582687 -6.0141907 -3.3582687 -13.433075c0 -7.4188843 1.5035477 -13.433075 3.3582687 -13.433075l0 0c1.8547173 0 3.358265 6.0141907 3.358265 13.433075c0 7.4188843 -1.5035477 13.433075 -3.358265 13.433075z" fill-rule="evenodd"/><path fill="#000000" fill-opacity="0.0" d="m55.955475 330.82947l0 0c1.8547173 0 3.358265 6.0141907 3.358265 13.433075c0 7.4188843 -1.5035477 13.433075 -3.358265 13.433075l0 0c-1.8547211 0 -3.3582687 -6.0141907 -3.3582687 -13.433075c0 -7.4188843 1.5035477 -13.433075 3.3582687 -13.433075l698.0078 0c1.8547363 0 3.3582764 6.0141907 3.3582764 13.433075c0 7.4188843 -1.50354 13.433075 -3.3582764 13.433075l-698.0078 0" fill-rule="evenodd"/><path stroke="#000000" stroke-width="2.0" stroke-linejoin="round" stroke-linecap="butt" d="m55.955475 330.82947l0 0c1.8547173 0 3.358265 6.0141907 3.358265 13.433075c0 7.4188843 -1.5035477 13.433075 -3.358265 13.433075l0 0c-1.8547211 0 -3.3582687 -6.0141907 -3.3582687 -13.433075c0 -7.4188843 1.5035477 -13.433075 3.3582687 -13.433075l698.0078 0c1.8547363 0 3.3582764 6.0141907 3.3582764 13.433075c0 7.4188843 -1.50354 13.433075 -3.3582764 13.433075l-698.0078 0" fill-rule="evenodd"/><path fill="#000000" fill-opacity="0.0" d="m314.47122 321.7875l180.97638 0l0 28.125977l-180.97638 0z" fill-rule="evenodd"/><path fill="#000000" d="m339.81287 348.7075l0 -9.671875l1.46875 0l0 1.359375q0.453125 -0.71875 1.203125 -1.140625q0.765625 -0.4375 1.71875 -0.4375q1.078125 0 1.765625 0.453125q0.6875 0.4375 0.96875 1.234375q1.15625 -1.6875 2.984375 -1.6875q1.453125 0 2.21875 0.796875q0.78125 0.796875 0.78125 2.453125l0 6.640625l-1.640625 0l0 -6.09375q0 -0.984375 -0.15625 -1.40625q-0.15625 -0.4375 -0.578125 -0.703125q-0.421875 -0.265625 -0.984375 -0.265625q-1.015625 0 -1.6875 0.6875q-0.671875 0.671875 -0.671875 2.15625l0 5.625l-1.640625 0l0 -6.28125q0 -1.09375 -0.40625 -1.640625q-0.40625 -0.546875 -1.3125 -0.546875q-0.6875 0 -1.28125 0.359375q-0.59375 0.359375 -0.859375 1.0625q-0.25 0.703125 -0.25 2.03125l0 5.015625l-1.640625 0zm22.165802 -3.109375l1.6875 0.203125q-0.40625 1.484375 -1.484375 2.3125q-1.078125 0.8125 -2.765625 0.8125q-2.125 0 -3.375 -1.296875q-1.234375 -1.3125 -1.234375 -3.671875q0 -2.453125 1.25 -3.796875q1.265625 -1.34375 3.265625 -1.34375q1.9375 0 3.15625 1.328125q1.234375 1.3125 1.234375 3.703125q0 0.15625 0 0.4375l-7.21875 0q0.09375 1.59375 0.90625 2.453125q0.8125 0.84375 2.015625 0.84375q0.90625 0 1.546875 -0.46875q0.640625 -0.484375 1.015625 -1.515625zm-5.390625 -2.65625l5.40625 0q-0.109375 -1.21875 -0.625 -1.828125q-0.78125 -0.953125 -2.03125 -0.953125q-1.125 0 -1.90625 0.765625q-0.765625 0.75 -0.84375 2.015625zm8.485107 2.875l1.625 -0.25q0.125 0.96875 0.75 1.5q0.625 0.515625 1.75 0.515625q1.125 0 1.671875 -0.453125q0.546875 -0.46875 0.546875 -1.09375q0 -0.546875 -0.484375 -0.875q-0.328125 -0.21875 -1.671875 -0.546875q-1.8125 -0.46875 -2.515625 -0.796875q-0.6875 -0.328125 -1.046875 -0.90625q-0.359375 -0.59375 -0.359375 -1.3125q0 -0.640625 0.296875 -1.1875q0.296875 -0.5625 0.8125 -0.921875q0.375 -0.28125 1.03125 -0.46875q0.671875 -0.203125 1.421875 -0.203125q1.140625 0 2.0 0.328125q0.859375 0.328125 1.265625 0.890625q0.421875 0.5625 0.578125 1.5l-1.609375 0.21875q-0.109375 -0.75 -0.640625 -1.171875q-0.515625 -0.421875 -1.46875 -0.421875q-1.140625 0 -1.625 0.375q-0.46875 0.375 -0.46875 0.875q0 0.3125 0.1875 0.578125q0.203125 0.265625 0.640625 0.4375q0.234375 0.09375 1.4375 0.421875q1.75 0.453125 2.4375 0.75q0.6875 0.296875 1.078125 0.859375q0.390625 0.5625 0.390625 1.40625q0 0.828125 -0.484375 1.546875q-0.46875 0.71875 -1.375 1.125q-0.90625 0.390625 -2.046875 0.390625q-1.875 0 -2.875 -0.78125q-0.984375 -0.78125 -1.25 -2.328125zm9.328125 0l1.625 -0.25q0.125 0.96875 0.75 1.5q0.625 0.515625 1.75 0.515625q1.125 0 1.671875 -0.453125q0.546875 -0.46875 0.546875 -1.09375q0 -0.546875 -0.484375 -0.875q-0.328125 -0.21875 -1.671875 -0.546875q-1.8125 -0.46875 -2.515625 -0.796875q-0.6875 -0.328125 -1.046875 -0.90625q-0.359375 -0.59375 -0.359375 -1.3125q0 -0.640625 0.296875 -1.1875q0.296875 -0.5625 0.8125 -0.921875q0.375 -0.28125 1.03125 -0.46875q0.671875 -0.203125 1.421875 -0.203125q1.140625 0 2.0 0.328125q0.859375 0.328125 1.265625 0.890625q0.421875 0.5625 0.578125 1.5l-1.609375 0.21875q-0.109375 -0.75 -0.640625 -1.171875q-0.515625 -0.421875 -1.46875 -0.421875q-1.140625 0 -1.625 0.375q-0.46875 0.375 -0.46875 0.875q0 0.3125 0.1875 0.578125q0.203125 0.265625 0.640625 0.4375q0.234375 0.09375 1.4375 0.421875q1.75 0.453125 2.4375 0.75q0.6875 0.296875 1.078125 0.859375q0.390625 0.5625 0.390625 1.40625q0 0.828125 -0.484375 1.546875q-0.46875 0.71875 -1.375 1.125q-0.90625 0.390625 -2.046875 0.390625q-1.875 0 -2.875 -0.78125q-0.984375 -0.78125 -1.25 -2.328125zm16.296875 1.703125q-0.921875 0.765625 -1.765625 1.09375q-0.828125 0.3125 -1.796875 0.3125q-1.59375 0 -2.453125 -0.78125q-0.859375 -0.78125 -0.859375 -1.984375q0 -0.71875 0.328125 -1.296875q0.328125 -0.59375 0.84375 -0.9375q0.53125 -0.359375 1.1875 -0.546875q0.46875 -0.125 1.453125 -0.25q1.984375 -0.234375 2.921875 -0.5625q0.015625 -0.34375 0.015625 -0.421875q0 -1.0 -0.46875 -1.421875q-0.625 -0.546875 -1.875 -0.546875q-1.15625 0 -1.703125 0.40625q-0.546875 0.40625 -0.8125 1.421875l-1.609375 -0.21875q0.21875 -1.015625 0.71875 -1.640625q0.5 -0.640625 1.453125 -0.984375q0.953125 -0.34375 2.1875 -0.34375q1.25 0 2.015625 0.296875q0.78125 0.28125 1.140625 0.734375q0.375 0.4375 0.515625 1.109375q0.078125 0.421875 0.078125 1.515625l0 2.1875q0 2.28125 0.109375 2.890625q0.109375 0.59375 0.40625 1.15625l-1.703125 0q-0.265625 -0.515625 -0.328125 -1.1875zm-0.140625 -3.671875q-0.890625 0.375 -2.671875 0.625q-1.015625 0.140625 -1.4375 0.328125q-0.421875 0.1875 -0.65625 0.53125q-0.21875 0.34375 -0.21875 0.78125q0 0.65625 0.5 1.09375q0.5 0.4375 1.453125 0.4375q0.9375 0 1.671875 -0.40625q0.75 -0.421875 1.09375 -1.140625q0.265625 -0.5625 0.265625 -1.640625l0 -0.609375zm3.891327 5.65625l1.59375 0.234375q0.109375 0.75 0.5625 1.078125q0.609375 0.453125 1.671875 0.453125q1.140625 0 1.75 -0.453125q0.625 -0.453125 0.84375 -1.265625q0.125 -0.5 0.109375 -2.109375q-1.0625 1.265625 -2.671875 1.265625q-2.0 0 -3.09375 -1.4375q-1.09375 -1.4375 -1.09375 -3.453125q0 -1.390625 0.5 -2.5625q0.515625 -1.171875 1.453125 -1.796875q0.953125 -0.640625 2.25 -0.640625q1.703125 0 2.8125 1.375l0 -1.15625l1.515625 0l0 8.359375q0 2.265625 -0.46875 3.203125q-0.453125 0.9375 -1.453125 1.484375q-0.984375 0.546875 -2.453125 0.546875q-1.71875 0 -2.796875 -0.78125q-1.0625 -0.765625 -1.03125 -2.34375zm1.359375 -5.8125q0 1.90625 0.75 2.78125q0.765625 0.875 1.90625 0.875q1.125 0 1.890625 -0.859375q0.765625 -0.875 0.765625 -2.734375q0 -1.78125 -0.796875 -2.671875q-0.78125 -0.90625 -1.890625 -0.90625q-1.09375 0 -1.859375 0.890625q-0.765625 0.875 -0.765625 2.625zm15.953857 1.90625l1.6875 0.203125q-0.40625 1.484375 -1.484375 2.3125q-1.078125 0.8125 -2.765625 0.8125q-2.125 0 -3.375 -1.296875q-1.234375 -1.3125 -1.234375 -3.671875q0 -2.453125 1.25 -3.796875q1.265625 -1.34375 3.265625 -1.34375q1.9375 0 3.15625 1.328125q1.234375 1.3125 1.234375 3.703125q0 0.15625 0 0.4375l-7.21875 0q0.09375 1.59375 0.90625 2.453125q0.8125 0.84375 2.015625 0.84375q0.90625 0 1.546875 -0.46875q0.640625 -0.484375 1.015625 -1.515625zm-5.390625 -2.65625l5.40625 0q-0.109375 -1.21875 -0.625 -1.828125q-0.78125 -0.953125 -2.03125 -0.953125q-1.125 0 -1.90625 0.765625q-0.765625 0.75 -0.84375 2.015625zm20.480896 9.46875l0 -4.734375q-0.375 0.546875 -1.0625 0.90625q-0.6875 0.34375 -1.46875 0.34375q-1.71875 0 -2.96875 -1.375q-1.234375 -1.375 -1.234375 -3.765625q0 -1.46875 0.5 -2.625q0.515625 -1.15625 1.46875 -1.75q0.96875 -0.59375 2.109375 -0.59375q1.796875 0 2.828125 1.515625l0 -1.296875l1.46875 0l0 13.375l-1.640625 0zm-5.046875 -8.5625q0 1.859375 0.78125 2.796875q0.78125 0.9375 1.875 0.9375q1.046875 0 1.796875 -0.890625q0.765625 -0.890625 0.765625 -2.703125q0 -1.9375 -0.796875 -2.90625q-0.796875 -0.96875 -1.875 -0.96875q-1.0625 0 -1.8125 0.90625q-0.734375 0.90625 -0.734375 2.828125zm15.594452 4.859375l0 -1.421875q-1.125 1.640625 -3.0625 1.640625q-0.859375 0 -1.609375 -0.328125q-0.734375 -0.328125 -1.09375 -0.828125q-0.359375 -0.5 -0.5 -1.21875q-0.109375 -0.46875 -0.109375 -1.53125l0 -5.984375l1.640625 0l0 5.359375q0 1.28125 0.109375 1.734375q0.15625 0.640625 0.65625 1.015625q0.5 0.375 1.234375 0.375q0.734375 0 1.375 -0.375q0.65625 -0.390625 0.921875 -1.03125q0.265625 -0.65625 0.265625 -1.890625l0 -5.1875l1.640625 0l0 9.671875l-1.46875 0zm10.672607 -3.109375l1.6875 0.203125q-0.40625 1.484375 -1.484375 2.3125q-1.078125 0.8125 -2.765625 0.8125q-2.125 0 -3.375 -1.296875q-1.234375 -1.3125 -1.234375 -3.671875q0 -2.453125 1.25 -3.796875q1.265625 -1.34375 3.265625 -1.34375q1.9375 0 3.15625 1.328125q1.234375 1.3125 1.234375 3.703125q0 0.15625 0 0.4375l-7.21875 0q0.09375 1.59375 0.90625 2.453125q0.8125 0.84375 2.015625 0.84375q0.90625 0 1.546875 -0.46875q0.640625 -0.484375 1.015625 -1.515625zm-5.390625 -2.65625l5.40625 0q-0.109375 -1.21875 -0.625 -1.828125q-0.78125 -0.953125 -2.03125 -0.953125q-1.125 0 -1.90625 0.765625q-0.765625 0.75 -0.84375 2.015625zm15.469452 5.765625l0 -1.421875q-1.125 1.640625 -3.0625 1.640625q-0.859375 0 -1.609375 -0.328125q-0.734375 -0.328125 -1.09375 -0.828125q-0.359375 -0.5 -0.5 -1.21875q-0.109375 -0.46875 -0.109375 -1.53125l0 -5.984375l1.640625 0l0 5.359375q0 1.28125 0.109375 1.734375q0.15625 0.640625 0.65625 1.015625q0.5 0.375 1.234375 0.375q0.734375 0 1.375 -0.375q0.65625 -0.390625 0.921875 -1.03125q0.265625 -0.65625 0.265625 -1.890625l0 -5.1875l1.640625 0l0 9.671875l-1.46875 0zm10.672607 -3.109375l1.6875 0.203125q-0.40625 1.484375 -1.484375 2.3125q-1.078125 0.8125 -2.765625 0.8125q-2.125 0 -3.375 -1.296875q-1.234375 -1.3125 -1.234375 -3.671875q0 -2.453125 1.25 -3.796875q1.265625 -1.34375 3.265625 -1.34375q1.9375 0 3.15625 1.328125q1.234375 1.3125 1.234375 3.703125q0 0.15625 0 0.4375l-7.21875 0q0.09375 1.59375 0.90625 2.453125q0.8125 0.84375 2.015625 0.84375q0.90625 0 1.546875 -0.46875q0.640625 -0.484375 1.015625 -1.515625zm-5.390625 -2.65625l5.40625 0q-0.109375 -1.21875 -0.625 -1.828125q-0.78125 -0.953125 -2.03125 -0.953125q-1.125 0 -1.90625 0.765625q-0.765625 0.75 -0.84375 2.015625z" fill-rule="nonzero"/><path fill="#d9ead3" d="m224.0 4.0l148.0 0l0 60.944885l-148.0 0z" fill-rule="evenodd"/><path stroke="#000000" stroke-width="2.0" stroke-linejoin="round" stroke-linecap="butt" d="m224.0 4.0l148.0 0l0 60.944885l-148.0 0z" fill-rule="evenodd"/><path fill="#000000" d="m260.94678 40.20494q-0.921875 0.765625 -1.765625 1.09375q-0.828125 0.3125 -1.796875 0.3125q-1.59375 0 -2.453125 -0.78125q-0.859375 -0.78125 -0.859375 -1.984375q0 -0.71875 0.328125 -1.296875q0.328125 -0.59375 0.84375 -0.9375q0.53125 -0.359375 1.1875 -0.546875q0.46875 -0.125 1.453125 -0.25q1.984375 -0.234375 2.921875 -0.5625q0.015625 -0.34375 0.015625 -0.421875q0 -1.0 -0.46875 -1.421875q-0.625 -0.546875 -1.875 -0.546875q-1.15625 0 -1.703125 0.40625q-0.546875 0.40625 -0.8125 1.421875l-1.609375 -0.21875q0.21875 -1.015625 0.71875 -1.640625q0.5 -0.640625 1.453125 -0.984375q0.953125 -0.34375 2.1875 -0.34375q1.25 0 2.015625 0.296875q0.78125 0.28125 1.140625 0.734375q0.375 0.4375 0.515625 1.109375q0.078125 0.421875 0.078125 1.515625l0 2.1875q0 2.28125 0.109375 2.890625q0.109375 0.59375 0.40625 1.15625l-1.703125 0q-0.265625 -0.515625 -0.328125 -1.1875zm-0.140625 -3.671875q-0.890625 0.375 -2.671875 0.625q-1.015625 0.140625 -1.4375 0.328125q-0.421875 0.1875 -0.65625 0.53125q-0.21875 0.34375 -0.21875 0.78125q0 0.65625 0.5 1.09375q0.5 0.4375 1.453125 0.4375q0.9375 0 1.671875 -0.40625q0.75 -0.421875 1.09375 -1.140625q0.265625 -0.5625 0.265625 -1.640625l0 -0.609375zm4.2038574 8.5625l0 -13.375l1.484375 0l0 1.25q0.53125 -0.734375 1.1875 -1.09375q0.671875 -0.375 1.625 -0.375q1.234375 0 2.171875 0.640625q0.953125 0.625 1.4375 1.796875q0.484375 1.15625 0.484375 2.546875q0 1.484375 -0.53125 2.671875q-0.53125 1.1875 -1.546875 1.828125q-1.015625 0.625 -2.140625 0.625q-0.8125 0 -1.46875 -0.34375q-0.65625 -0.34375 -1.0625 -0.875l0 4.703125l-1.640625 0zm1.484375 -8.484375q0 1.859375 0.75 2.765625q0.765625 0.890625 1.828125 0.890625q1.09375 0 1.875 -0.921875q0.78125 -0.9375 0.78125 -2.875q0 -1.84375 -0.765625 -2.765625q-0.75 -0.921875 -1.8125 -0.921875q-1.046875 0 -1.859375 0.984375q-0.796875 0.96875 -0.796875 2.84375zm8.891327 8.484375l0 -13.375l1.484375 0l0 1.25q0.53125 -0.734375 1.1875 -1.09375q0.671875 -0.375 1.625 -0.375q1.234375 0 2.171875 0.640625q0.953125 0.625 1.4375 1.796875q0.484375 1.15625 0.484375 2.546875q0 1.484375 -0.53125 2.671875q-0.53125 1.1875 -1.546875 1.828125q-1.015625 0.625 -2.140625 0.625q-0.8125 0 -1.46875 -0.34375q-0.65625 -0.34375 -1.0625 -0.875l0 4.703125l-1.640625 0zm1.484375 -8.484375q0 1.859375 0.75 2.765625q0.765625 0.890625 1.828125 0.890625q1.09375 0 1.875 -0.921875q0.78125 -0.9375 0.78125 -2.875q0 -1.84375 -0.765625 -2.765625q-0.75 -0.921875 -1.8125 -0.921875q-1.046875 0 -1.859375 0.984375q-0.796875 0.96875 -0.796875 2.84375zm8.844452 4.78125l0 -13.359375l1.640625 0l0 13.359375l-1.640625 0zm4.1917114 -11.46875l0 -1.890625l1.640625 0l0 1.890625l-1.640625 0zm0 11.46875l0 -9.671875l1.640625 0l0 9.671875l-1.640625 0zm10.457336 -3.546875l1.609375 0.21875q-0.265625 1.65625 -1.359375 2.609375q-1.078125 0.9375 -2.671875 0.9375q-1.984375 0 -3.1875 -1.296875q-1.203125 -1.296875 -1.203125 -3.71875q0 -1.578125 0.515625 -2.75q0.515625 -1.171875 1.578125 -1.75q1.0625 -0.59375 2.3125 -0.59375q1.578125 0 2.578125 0.796875q1.0 0.796875 1.28125 2.265625l-1.59375 0.234375q-0.234375 -0.96875 -0.8125 -1.453125q-0.578125 -0.5 -1.390625 -0.5q-1.234375 0 -2.015625 0.890625q-0.78125 0.890625 -0.78125 2.8125q0 1.953125 0.75 2.84375q0.75 0.875 1.953125 0.875q0.96875 0 1.609375 -0.59375q0.65625 -0.59375 0.828125 -1.828125zm9.328125 2.359375q-0.921875 0.765625 -1.765625 1.09375q-0.828125 0.3125 -1.796875 0.3125q-1.59375 0 -2.453125 -0.78125q-0.859375 -0.78125 -0.859375 -1.984375q0 -0.71875 0.328125 -1.296875q0.328125 -0.59375 0.84375 -0.9375q0.53125 -0.359375 1.1875 -0.546875q0.46875 -0.125 1.453125 -0.25q1.984375 -0.234375 2.921875 -0.5625q0.015625 -0.34375 0.015625 -0.421875q0 -1.0 -0.46875 -1.421875q-0.625 -0.546875 -1.875 -0.546875q-1.15625 0 -1.703125 0.40625q-0.546875 0.40625 -0.8125 1.421875l-1.609375 -0.21875q0.21875 -1.015625 0.71875 -1.640625q0.5 -0.640625 1.453125 -0.984375q0.953125 -0.34375 2.1875 -0.34375q1.25 0 2.015625 0.296875q0.78125 0.28125 1.140625 0.734375q0.375 0.4375 0.515625 1.109375q0.078125 0.421875 0.078125 1.515625l0 2.1875q0 2.28125 0.109375 2.890625q0.109375 0.59375 0.40625 1.15625l-1.703125 0q-0.265625 -0.515625 -0.328125 -1.1875zm-0.140625 -3.671875q-0.890625 0.375 -2.671875 0.625q-1.015625 0.140625 -1.4375 0.328125q-0.421875 0.1875 -0.65625 0.53125q-0.21875 0.34375 -0.21875 0.78125q0 0.65625 0.5 1.09375q0.5 0.4375 1.453125 0.4375q0.9375 0 1.671875 -0.40625q0.75 -0.421875 1.09375 -1.140625q0.265625 -0.5625 0.265625 -1.640625l0 -0.609375zm7.781952 3.390625l0.234375 1.453125q-0.6875 0.140625 -1.234375 0.140625q-0.890625 0 -1.390625 -0.28125q-0.484375 -0.28125 -0.6875 -0.734375q-0.203125 -0.46875 -0.203125 -1.9375l0 -5.578125l-1.203125 0l0 -1.265625l1.203125 0l0 -2.390625l1.625 -0.984375l0 3.375l1.65625 0l0 1.265625l-1.65625 0l0 5.671875q0 0.6875 0.078125 0.890625q0.09375 0.203125 0.28125 0.328125q0.203125 0.109375 0.578125 0.109375q0.265625 0 0.71875 -0.0625zm1.6051941 -10.0l0 -1.890625l1.640625 0l0 1.890625l-1.640625 0zm0 11.46875l0 -9.671875l1.640625 0l0 9.671875l-1.640625 0zm3.535431 -4.84375q0 -2.6875 1.484375 -3.96875q1.25 -1.078125 3.046875 -1.078125q2.0 0 3.265625 1.3125q1.265625 1.296875 1.265625 3.609375q0 1.859375 -0.5625 2.9375q-0.5625 1.0625 -1.640625 1.65625q-1.0625 0.59375 -2.328125 0.59375q-2.03125 0 -3.28125 -1.296875q-1.25 -1.3125 -1.25 -3.765625zm1.6875 0q0 1.859375 0.796875 2.796875q0.8125 0.921875 2.046875 0.921875q1.21875 0 2.03125 -0.921875q0.8125 -0.9375 0.8125 -2.84375q0 -1.796875 -0.8125 -2.71875q-0.8125 -0.921875 -2.03125 -0.921875q-1.234375 0 -2.046875 0.921875q-0.796875 0.90625 -0.796875 2.765625zm9.297577 4.84375l0 -9.671875l1.46875 0l0 1.375q1.0625 -1.59375 3.078125 -1.59375q0.875 0 1.609375 0.3125q0.734375 0.3125 1.09375 0.828125q0.375 0.5 0.515625 1.203125q0.09375 0.453125 0.09375 1.59375l0 5.953125l-1.640625 0l0 -5.890625q0 -1.0 -0.203125 -1.484375q-0.1875 -0.5 -0.671875 -0.796875q-0.484375 -0.296875 -1.140625 -0.296875q-1.046875 0 -1.8125 0.671875q-0.75 0.65625 -0.75 2.515625l0 5.28125l-1.640625 0z" fill-rule="nonzero"/><path fill="#000000" fill-opacity="0.0" d="m833.0315 357.69553l0 -268.8819l-35.46454 0l0 268.8819z" fill-rule="evenodd"/><path fill="#000000" d="m791.819 161.14912l0.546875 3.46875q-2.078125 0.296875 -3.203125 1.625q-1.109375 1.34375 -1.109375 3.75q0 2.421875 0.984375 3.59375q0.984375 1.171875 2.3125 1.171875q1.203125 0 1.875 -1.03125q0.46875 -0.71875 1.203125 -3.59375q0.96875 -3.875 1.671875 -5.375q0.71875 -1.484375 1.984375 -2.265625q1.265625 -0.765625 2.78125 -0.765625q1.390625 0 2.5625 0.640625q1.1875 0.640625 1.96875 1.734375q0.609375 0.8125 1.03125 2.21875q0.421875 1.421875 0.421875 3.046875q0 2.4375 -0.703125 4.28125q-0.703125 1.859375 -1.90625 2.734375q-1.203125 0.875 -3.21875 1.203125l-0.46875 -3.4375q1.609375 -0.234375 2.5 -1.359375q0.90625 -1.109375 0.90625 -3.171875q0 -2.421875 -0.8125 -3.453125q-0.796875 -1.03125 -1.875 -1.03125q-0.671875 0 -1.21875 0.421875q-0.578125 0.4375 -0.9375 1.359375q-0.203125 0.515625 -0.90625 3.09375q-1.0 3.734375 -1.640625 5.203125q-0.625 1.484375 -1.84375 2.3125q-1.203125 0.84375 -3.0 0.84375q-1.75 0 -3.3125 -1.03125q-1.546875 -1.015625 -2.40625 -2.953125q-0.84375 -1.921875 -0.84375 -4.375q0 -4.03125 1.671875 -6.15625q1.6875 -2.125 4.984375 -2.703125zm-14.171875 21.25l3.296875 -0.390625q-0.3125 1.15625 -0.3125 2.015625q0 1.171875 0.390625 1.875q0.390625 0.703125 1.09375 1.140625q0.53125 0.34375 2.609375 1.078125q0.296875 0.09375 0.859375 0.3125l20.796875 -7.875l0 3.796875l-12.015625 4.3125q-2.28125 0.84375 -4.8125 1.5q2.421875 0.609375 4.734375 1.453125l12.09375 4.4375l0 3.515625l-21.109375 -7.890625q-3.40625 -1.28125 -4.703125 -1.984375q-1.734375 -0.9375 -2.546875 -2.15625q-0.8125 -1.203125 -0.8125 -2.875q0 -1.015625 0.4375 -2.265625zm14.171875 18.75l0.546875 3.46875q-2.078125 0.296875 -3.203125 1.625q-1.109375 1.34375 -1.109375 3.75q0 2.421875 0.984375 3.59375q0.984375 1.171875 2.3125 1.171875q1.203125 0 1.875 -1.03125q0.46875 -0.71875 1.203125 -3.59375q0.96875 -3.875 1.671875 -5.375q0.71875 -1.484375 1.984375 -2.265625q1.265625 -0.765625 2.78125 -0.765625q1.390625 0 2.5625 0.640625q1.1875 0.640625 1.96875 1.734375q0.609375 0.8125 1.03125 2.21875q0.421875 1.421875 0.421875 3.046875q0 2.4375 -0.703125 4.28125q-0.703125 1.859375 -1.90625 2.734375q-1.203125 0.875 -3.21875 1.203125l-0.46875 -3.4375q1.609375 -0.234375 2.5 -1.359375q0.90625 -1.109375 0.90625 -3.171875q0 -2.421875 -0.8125 -3.453125q-0.796875 -1.03125 -1.875 -1.03125q-0.671875 0 -1.21875 0.421875q-0.578125 0.4375 -0.9375 1.359375q-0.203125 0.515625 -0.90625 3.09375q-1.0 3.734375 -1.640625 5.203125q-0.625 1.484375 -1.84375 2.3125q-1.203125 0.84375 -3.0 0.84375q-1.75 0 -3.3125 -1.03125q-1.546875 -1.015625 -2.40625 -2.953125q-0.84375 -1.921875 -0.84375 -4.375q0 -4.03125 1.671875 -6.15625q1.6875 -2.125 4.984375 -2.703125zm-3.046875 29.078125l-3.09375 0.515625q-0.328125 -1.484375 -0.328125 -2.65625q0 -1.921875 0.609375 -2.984375q0.609375 -1.046875 1.59375 -1.484375q0.984375 -0.421875 4.15625 -0.421875l11.9375 0l0 -2.578125l2.734375 0l0 2.578125l5.125 0l2.109375 3.5l-7.234375 0l0 3.53125l-2.734375 0l0 -3.53125l-12.140625 0q-1.5 0 -1.9375 0.1875q-0.421875 0.1875 -0.671875 0.59375q-0.25 0.421875 -0.25 1.203125q0 0.59375 0.125 1.546875zm3.546875 17.644531l-0.453125 3.625q-3.1875 -0.859375 -4.953125 -3.1875q-1.75 -2.3125 -1.75 -5.9375q0 -4.546875 2.796875 -7.21875q2.8125 -2.65625 7.875 -2.65625q5.234375 0 8.125 2.6875q2.890625 2.703125 2.890625 7.0q0 4.15625 -2.84375 6.796875q-2.828125 2.640625 -7.96875 2.640625q-0.3125 0 -0.9375 -0.03125l0 -15.46875q-3.40625 0.203125 -5.234375 1.9375q-1.8125 1.734375 -1.8125 4.34375q0 1.921875 1.015625 3.28125q1.015625 1.375 3.25 2.1875zm5.671875 -11.546875l0 11.578125q2.625 -0.234375 3.9375 -1.328125q2.03125 -1.671875 2.03125 -4.359375q0 -2.421875 -1.625 -4.078125q-1.625 -1.640625 -4.34375 -1.8125zm-12.359375 19.589844l20.75 0l0 3.1406403l-2.921875 0q1.53125 0.984375 2.453125 2.59375q0.9375 1.625 0.9375 3.703125q0 2.296875 -0.96875 3.765625q-0.953125 1.484375 -2.671875 2.09375q3.640625 2.453125 3.640625 6.40625q0 3.078125 -1.71875 4.734375q-1.703125 1.671875 -5.265625 1.671875l-14.234375 0l0 -3.5l13.0625 0q2.109375 0 3.03125 -0.34375q0.9375 -0.34375 1.5 -1.25q0.578125 -0.890625 0.578125 -2.09375q0 -2.1875 -1.46875 -3.640625q-1.453125 -1.4375 -4.65625 -1.4375l-12.046875 0l0 -3.515625l13.484375 0q2.34375 0 3.515625 -0.859375q1.171875 -0.859375 1.171875 -2.8125q0 -1.484375 -0.78125 -2.75q-0.78125 -1.265625 -2.296875 -1.828125q-1.5 -0.5625 -4.328125 -0.5625l-10.765625 0l0 -3.5156403z" fill-rule="nonzero"/><path fill="#000000" fill-opacity="0.0" d="m759.95013 84.68241l0 0c5.244507 0 9.496033 0.70856476 9.496033 1.5826187l0 133.8899c0 0.87405396 4.251587 1.5826111 9.496094 1.5826111l0 0c-5.244507 0 -9.496094 0.7085571 -9.496094 1.5826111l0 133.88988c0 0.87405396 -4.251526 1.5826416 -9.496033 1.5826416z" fill-rule="evenodd"/><path fill="#000000" fill-opacity="0.0" d="m759.95013 84.68241l0 0c5.244507 0 9.496033 0.70856476 9.496033 1.5826187l0 133.8899c0 0.87405396 4.251587 1.5826111 9.496094 1.5826111l0 0c-5.244507 0 -9.496094 0.7085571 -9.496094 1.5826111l0 133.88988c0 0.87405396 -4.251526 1.5826416 -9.496033 1.5826416" fill-rule="evenodd"/><path stroke="#000000" stroke-width="1.0" stroke-linejoin="round" stroke-linecap="butt" d="m759.95013 84.68241l0 0c5.244507 0 9.496033 0.70856476 9.496033 1.5826187l0 133.8899c0 0.87405396 4.251587 1.5826111 9.496094 1.5826111l0 0c-5.244507 0 -9.496094 0.7085571 -9.496094 1.5826111l0 133.88988c0 0.87405396 -4.251526 1.5826416 -9.496033 1.5826416" fill-rule="evenodd"/><path fill="#000000" fill-opacity="0.0" d="m48.732285 321.80054l0 0c-5.2445335 0 -9.496063 -0.70858765 -9.496063 -1.5826111l0 -95.82692c0 -0.87405396 -4.2515335 -1.5826111 -9.496063 -1.5826111l0 0c5.2445297 0 9.496063 -0.7085571 9.496063 -1.5826111l0 -95.8269c0 -0.87405396 4.2515297 -1.5826111 9.496063 -1.5826111z" fill-rule="evenodd"/><path fill="#000000" fill-opacity="0.0" d="m48.732285 321.80054l0 0c-5.2445335 0 -9.496063 -0.70858765 -9.496063 -1.5826111l0 -95.82692c0 -0.87405396 -4.2515335 -1.5826111 -9.496063 -1.5826111l0 0c5.2445297 0 9.496063 -0.7085571 9.496063 -1.5826111l0 -95.8269c0 -0.87405396 4.2515297 -1.5826111 9.496063 -1.5826111" fill-rule="evenodd"/><path stroke="#000000" stroke-width="1.0" stroke-linejoin="round" stroke-linecap="butt" d="m48.732285 321.80054l0 0c-5.2445335 0 -9.496063 -0.70858765 -9.496063 -1.5826111l0 -95.82692c0 -0.87405396 -4.2515335 -1.5826111 -9.496063 -1.5826111l0 0c5.2445297 0 9.496063 -0.7085571 9.496063 -1.5826111l0 -95.8269c0 -0.87405396 4.2515297 -1.5826111 9.496063 -1.5826111" fill-rule="evenodd"/><path fill="#d9ead3" d="m442.0 4.0l148.0 0l0 60.944885l-148.0 0z" fill-rule="evenodd"/><path stroke="#000000" stroke-width="2.0" stroke-linejoin="round" stroke-linecap="butt" d="m442.0 4.0l148.0 0l0 60.944885l-148.0 0z" fill-rule="evenodd"/><path fill="#000000" d="m478.94678 40.20494q-0.921875 0.765625 -1.765625 1.09375q-0.828125 0.3125 -1.796875 0.3125q-1.59375 0 -2.453125 -0.78125q-0.859375 -0.78125 -0.859375 -1.984375q0 -0.71875 0.328125 -1.296875q0.328125 -0.59375 0.84375 -0.9375q0.53125 -0.359375 1.1875 -0.546875q0.46875 -0.125 1.453125 -0.25q1.984375 -0.234375 2.921875 -0.5625q0.015625 -0.34375 0.015625 -0.421875q0 -1.0 -0.46875 -1.421875q-0.625 -0.546875 -1.875 -0.546875q-1.15625 0 -1.703125 0.40625q-0.546875 0.40625 -0.8125 1.421875l-1.609375 -0.21875q0.21875 -1.015625 0.71875 -1.640625q0.5 -0.640625 1.453125 -0.984375q0.953125 -0.34375 2.1875 -0.34375q1.25 0 2.015625 0.296875q0.78125 0.28125 1.140625 0.734375q0.375 0.4375 0.515625 1.109375q0.078125 0.421875 0.078125 1.515625l0 2.1875q0 2.28125 0.109375 2.890625q0.109375 0.59375 0.40625 1.15625l-1.703125 0q-0.265625 -0.515625 -0.328125 -1.1875zm-0.140625 -3.671875q-0.890625 0.375 -2.671875 0.625q-1.015625 0.140625 -1.4375 0.328125q-0.421875 0.1875 -0.65625 0.53125q-0.21875 0.34375 -0.21875 0.78125q0 0.65625 0.5 1.09375q0.5 0.4375 1.453125 0.4375q0.9375 0 1.671875 -0.40625q0.75 -0.421875 1.09375 -1.140625q0.265625 -0.5625 0.265625 -1.640625l0 -0.609375zm4.2038574 8.5625l0 -13.375l1.484375 0l0 1.25q0.53125 -0.734375 1.1875 -1.09375q0.671875 -0.375 1.625 -0.375q1.234375 0 2.171875 0.640625q0.953125 0.625 1.4375 1.796875q0.484375 1.15625 0.484375 2.546875q0 1.484375 -0.53125 2.671875q-0.53125 1.1875 -1.546875 1.828125q-1.015625 0.625 -2.140625 0.625q-0.8125 0 -1.46875 -0.34375q-0.65625 -0.34375 -1.0625 -0.875l0 4.703125l-1.640625 0zm1.484375 -8.484375q0 1.859375 0.75 2.765625q0.765625 0.890625 1.828125 0.890625q1.09375 0 1.875 -0.921875q0.78125 -0.9375 0.78125 -2.875q0 -1.84375 -0.765625 -2.765625q-0.75 -0.921875 -1.8125 -0.921875q-1.046875 0 -1.859375 0.984375q-0.796875 0.96875 -0.796875 2.84375zm8.891327 8.484375l0 -13.375l1.484375 0l0 1.25q0.53125 -0.734375 1.1875 -1.09375q0.671875 -0.375 1.625 -0.375q1.234375 0 2.171875 0.640625q0.953125 0.625 1.4375 1.796875q0.484375 1.15625 0.484375 2.546875q0 1.484375 -0.53125 2.671875q-0.53125 1.1875 -1.546875 1.828125q-1.015625 0.625 -2.140625 0.625q-0.8125 0 -1.46875 -0.34375q-0.65625 -0.34375 -1.0625 -0.875l0 4.703125l-1.640625 0zm1.484375 -8.484375q0 1.859375 0.75 2.765625q0.765625 0.890625 1.828125 0.890625q1.09375 0 1.875 -0.921875q0.78125 -0.9375 0.78125 -2.875q0 -1.84375 -0.765625 -2.765625q-0.75 -0.921875 -1.8125 -0.921875q-1.046875 0 -1.859375 0.984375q-0.796875 0.96875 -0.796875 2.84375zm8.844452 4.78125l0 -13.359375l1.640625 0l0 13.359375l-1.640625 0zm4.1917114 -11.46875l0 -1.890625l1.640625 0l0 1.890625l-1.640625 0zm0 11.46875l0 -9.671875l1.640625 0l0 9.671875l-1.640625 0zm10.457336 -3.546875l1.609375 0.21875q-0.265625 1.65625 -1.359375 2.609375q-1.078125 0.9375 -2.671875 0.9375q-1.984375 0 -3.1875 -1.296875q-1.203125 -1.296875 -1.203125 -3.71875q0 -1.578125 0.515625 -2.75q0.515625 -1.171875 1.578125 -1.75q1.0625 -0.59375 2.3125 -0.59375q1.578125 0 2.578125 0.796875q1.0 0.796875 1.28125 2.265625l-1.59375 0.234375q-0.234375 -0.96875 -0.8125 -1.453125q-0.578125 -0.5 -1.390625 -0.5q-1.234375 0 -2.015625 0.890625q-0.78125 0.890625 -0.78125 2.8125q0 1.953125 0.75 2.84375q0.75 0.875 1.953125 0.875q0.96875 0 1.609375 -0.59375q0.65625 -0.59375 0.828125 -1.828125zm9.328125 2.359375q-0.921875 0.765625 -1.765625 1.09375q-0.828125 0.3125 -1.796875 0.3125q-1.59375 0 -2.453125 -0.78125q-0.859375 -0.78125 -0.859375 -1.984375q0 -0.71875 0.328125 -1.296875q0.328125 -0.59375 0.84375 -0.9375q0.53125 -0.359375 1.1875 -0.546875q0.46875 -0.125 1.453125 -0.25q1.984375 -0.234375 2.921875 -0.5625q0.015625 -0.34375 0.015625 -0.421875q0 -1.0 -0.46875 -1.421875q-0.625 -0.546875 -1.875 -0.546875q-1.15625 0 -1.703125 0.40625q-0.546875 0.40625 -0.8125 1.421875l-1.609375 -0.21875q0.21875 -1.015625 0.71875 -1.640625q0.5 -0.640625 1.453125 -0.984375q0.953125 -0.34375 2.1875 -0.34375q1.25 0 2.015625 0.296875q0.78125 0.28125 1.140625 0.734375q0.375 0.4375 0.515625 1.109375q0.078125 0.421875 0.078125 1.515625l0 2.1875q0 2.28125 0.109375 2.890625q0.109375 0.59375 0.40625 1.15625l-1.703125 0q-0.265625 -0.515625 -0.328125 -1.1875zm-0.140625 -3.671875q-0.890625 0.375 -2.671875 0.625q-1.015625 0.140625 -1.4375 0.328125q-0.421875 0.1875 -0.65625 0.53125q-0.21875 0.34375 -0.21875 0.78125q0 0.65625 0.5 1.09375q0.5 0.4375 1.453125 0.4375q0.9375 0 1.671875 -0.40625q0.75 -0.421875 1.09375 -1.140625q0.265625 -0.5625 0.265625 -1.640625l0 -0.609375zm7.7819214 3.390625l0.234375 1.453125q-0.6875 0.140625 -1.234375 0.140625q-0.890625 0 -1.390625 -0.28125q-0.484375 -0.28125 -0.6875 -0.734375q-0.203125 -0.46875 -0.203125 -1.9375l0 -5.578125l-1.203125 0l0 -1.265625l1.203125 0l0 -2.390625l1.625 -0.984375l0 3.375l1.65625 0l0 1.265625l-1.65625 0l0 5.671875q0 0.6875 0.078125 0.890625q0.09375 0.203125 0.28125 0.328125q0.203125 0.109375 0.578125 0.109375q0.265625 0 0.71875 -0.0625zm1.6052246 -10.0l0 -1.890625l1.640625 0l0 1.890625l-1.640625 0zm0 11.46875l0 -9.671875l1.640625 0l0 9.671875l-1.640625 0zm3.5354004 -4.84375q0 -2.6875 1.484375 -3.96875q1.25 -1.078125 3.046875 -1.078125q2.0 0 3.265625 1.3125q1.265625 1.296875 1.265625 3.609375q0 1.859375 -0.5625 2.9375q-0.5625 1.0625 -1.640625 1.65625q-1.0625 0.59375 -2.328125 0.59375q-2.03125 0 -3.28125 -1.296875q-1.25 -1.3125 -1.25 -3.765625zm1.6875 0q0 1.859375 0.796875 2.796875q0.8125 0.921875 2.046875 0.921875q1.21875 0 2.03125 -0.921875q0.8125 -0.9375 0.8125 -2.84375q0 -1.796875 -0.8125 -2.71875q-0.8125 -0.921875 -2.03125 -0.921875q-1.234375 0 -2.046875 0.921875q-0.796875 0.90625 -0.796875 2.765625zm9.297607 4.84375l0 -9.671875l1.46875 0l0 1.375q1.0625 -1.59375 3.078125 -1.59375q0.875 0 1.609375 0.3125q0.734375 0.3125 1.09375 0.828125q0.375 0.5 0.515625 1.203125q0.09375 0.453125 0.09375 1.59375l0 5.953125l-1.640625 0l0 -5.890625q0 -1.0 -0.203125 -1.484375q-0.1875 -0.5 -0.671875 -0.796875q-0.484375 -0.296875 -1.140625 -0.296875q-1.046875 0 -1.8125 0.671875q-0.75 0.65625 -0.75 2.515625l0 5.28125l-1.640625 0z" fill-rule="nonzero"/></g></svg>